<?xml version="1.0" encoding="utf-8" standalone="no"?>
<!DOCTYPE svg PUBLIC "-//W3C//DTD SVG 1.1//EN"
  "http://www.w3.org/Graphics/SVG/1.1/DTD/svg11.dtd">
<svg xmlns:xlink="http://www.w3.org/1999/xlink" width="293.756969pt" height="275.127092pt" viewBox="0 0 293.756969 275.127092" xmlns="http://www.w3.org/2000/svg" version="1.1">
 <metadata>
  <rdf:RDF xmlns:dc="http://purl.org/dc/elements/1.1/" xmlns:cc="http://creativecommons.org/ns#" xmlns:rdf="http://www.w3.org/1999/02/22-rdf-syntax-ns#">
   <cc:Work>
    <dc:type rdf:resource="http://purl.org/dc/dcmitype/StillImage"/>
    <dc:date>2023-04-17T11:42:14.844351</dc:date>
    <dc:format>image/svg+xml</dc:format>
    <dc:creator>
     <cc:Agent>
      <dc:title>Matplotlib v3.7.1, https://matplotlib.org/</dc:title>
     </cc:Agent>
    </dc:creator>
   </cc:Work>
  </rdf:RDF>
 </metadata>
 <defs>
  <style type="text/css">*{stroke-linejoin: round; stroke-linecap: butt}</style>
 </defs>
 <g id="figure_1">
  <g id="patch_1">
   <path d="M 0 275.127092 
L 293.756969 275.127092 
L 293.756969 0 
L 0 0 
z
" style="fill: #ffffff"/>
  </g>
  <g id="axes_1">
   <g id="patch_2">
    <path d="M 42.3175 238.089592 
L 207.08128 238.089592 
L 207.08128 19.821875 
L 42.3175 19.821875 
z
" style="fill: #eaeaf2"/>
   </g>
   <g id="matplotlib.axis_1">
    <g id="xtick_1">
     <g id="line2d_1">
      <path d="M 43.371102 238.089592 
L 43.371102 19.821875 
" clip-path="url(#pc8a3734b6c)" style="fill: none; stroke: #ffffff; stroke-width: 0.8; stroke-linecap: round"/>
     </g>
     <g id="text_1">
      <!-- $\mathdefault{10^{1}}$ -->
      <g style="fill: #262626" transform="translate(37.731102 253.478342) scale(0.08 -0.08)">
       <defs>
        <path id="TimesNewRomanPSMT-31" d="M 750 3822 
L 1781 4325 
L 1884 4325 
L 1884 747 
Q 1884 391 1914 303 
Q 1944 216 2037 169 
Q 2131 122 2419 116 
L 2419 0 
L 825 0 
L 825 116 
Q 1125 122 1212 167 
Q 1300 213 1334 289 
Q 1369 366 1369 747 
L 1369 3034 
Q 1369 3497 1338 3628 
Q 1316 3728 1258 3775 
Q 1200 3822 1119 3822 
Q 1003 3822 797 3725 
L 750 3822 
z
" transform="scale(0.015625)"/>
        <path id="TimesNewRomanPSMT-30" d="M 231 2094 
Q 231 2819 450 3342 
Q 669 3866 1031 4122 
Q 1313 4325 1613 4325 
Q 2100 4325 2488 3828 
Q 2972 3213 2972 2159 
Q 2972 1422 2759 906 
Q 2547 391 2217 158 
Q 1888 -75 1581 -75 
Q 975 -75 572 641 
Q 231 1244 231 2094 
z
M 844 2016 
Q 844 1141 1059 588 
Q 1238 122 1591 122 
Q 1759 122 1940 273 
Q 2122 425 2216 781 
Q 2359 1319 2359 2297 
Q 2359 3022 2209 3506 
Q 2097 3866 1919 4016 
Q 1791 4119 1609 4119 
Q 1397 4119 1231 3928 
Q 1006 3669 925 3112 
Q 844 2556 844 2016 
z
" transform="scale(0.015625)"/>
       </defs>
       <use xlink:href="#TimesNewRomanPSMT-31" transform="translate(0 0.582813)"/>
       <use xlink:href="#TimesNewRomanPSMT-30" transform="translate(50 0.582813)"/>
       <use xlink:href="#TimesNewRomanPSMT-31" transform="translate(101.502813 60.695312) scale(0.7)"/>
      </g>
     </g>
    </g>
    <g id="xtick_2">
     <g id="line2d_2">
      <path d="M 82.217745 238.089592 
L 82.217745 19.821875 
" clip-path="url(#pc8a3734b6c)" style="fill: none; stroke: #ffffff; stroke-width: 0.8; stroke-linecap: round"/>
     </g>
     <g id="text_2">
      <!-- $\mathdefault{10^{2}}$ -->
      <g style="fill: #262626" transform="translate(76.577745 253.478342) scale(0.08 -0.08)">
       <defs>
        <path id="TimesNewRomanPSMT-32" d="M 2934 816 
L 2638 0 
L 138 0 
L 138 116 
Q 1241 1122 1691 1759 
Q 2141 2397 2141 2925 
Q 2141 3328 1894 3587 
Q 1647 3847 1303 3847 
Q 991 3847 742 3664 
Q 494 3481 375 3128 
L 259 3128 
Q 338 3706 661 4015 
Q 984 4325 1469 4325 
Q 1984 4325 2329 3994 
Q 2675 3663 2675 3213 
Q 2675 2891 2525 2569 
Q 2294 2063 1775 1497 
Q 997 647 803 472 
L 1909 472 
Q 2247 472 2383 497 
Q 2519 522 2628 598 
Q 2738 675 2819 816 
L 2934 816 
z
" transform="scale(0.015625)"/>
       </defs>
       <use xlink:href="#TimesNewRomanPSMT-31" transform="translate(0 0.582813)"/>
       <use xlink:href="#TimesNewRomanPSMT-30" transform="translate(50 0.582813)"/>
       <use xlink:href="#TimesNewRomanPSMT-32" transform="translate(101.502813 60.695312) scale(0.7)"/>
      </g>
     </g>
    </g>
    <g id="xtick_3">
     <g id="line2d_3">
      <path d="M 121.064388 238.089592 
L 121.064388 19.821875 
" clip-path="url(#pc8a3734b6c)" style="fill: none; stroke: #ffffff; stroke-width: 0.8; stroke-linecap: round"/>
     </g>
     <g id="text_3">
      <!-- $\mathdefault{10^{3}}$ -->
      <g style="fill: #262626" transform="translate(115.424388 253.478342) scale(0.08 -0.08)">
       <defs>
        <path id="TimesNewRomanPSMT-33" d="M 325 3431 
Q 506 3859 782 4092 
Q 1059 4325 1472 4325 
Q 1981 4325 2253 3994 
Q 2459 3747 2459 3466 
Q 2459 3003 1878 2509 
Q 2269 2356 2469 2072 
Q 2669 1788 2669 1403 
Q 2669 853 2319 450 
Q 1863 -75 997 -75 
Q 569 -75 414 31 
Q 259 138 259 259 
Q 259 350 332 419 
Q 406 488 509 488 
Q 588 488 669 463 
Q 722 447 909 348 
Q 1097 250 1169 231 
Q 1284 197 1416 197 
Q 1734 197 1970 444 
Q 2206 691 2206 1028 
Q 2206 1275 2097 1509 
Q 2016 1684 1919 1775 
Q 1784 1900 1550 2001 
Q 1316 2103 1072 2103 
L 972 2103 
L 972 2197 
Q 1219 2228 1467 2375 
Q 1716 2522 1828 2728 
Q 1941 2934 1941 3181 
Q 1941 3503 1739 3701 
Q 1538 3900 1238 3900 
Q 753 3900 428 3381 
L 325 3431 
z
" transform="scale(0.015625)"/>
       </defs>
       <use xlink:href="#TimesNewRomanPSMT-31" transform="translate(0 0.582813)"/>
       <use xlink:href="#TimesNewRomanPSMT-30" transform="translate(50 0.582813)"/>
       <use xlink:href="#TimesNewRomanPSMT-33" transform="translate(101.502813 60.695312) scale(0.7)"/>
      </g>
     </g>
    </g>
    <g id="xtick_4">
     <g id="line2d_4">
      <path d="M 159.91103 238.089592 
L 159.91103 19.821875 
" clip-path="url(#pc8a3734b6c)" style="fill: none; stroke: #ffffff; stroke-width: 0.8; stroke-linecap: round"/>
     </g>
     <g id="text_4">
      <!-- $\mathdefault{10^{4}}$ -->
      <g style="fill: #262626" transform="translate(154.27103 253.478342) scale(0.08 -0.08)">
       <defs>
        <path id="TimesNewRomanPSMT-34" d="M 2978 1563 
L 2978 1119 
L 2409 1119 
L 2409 0 
L 1894 0 
L 1894 1119 
L 100 1119 
L 100 1519 
L 2066 4325 
L 2409 4325 
L 2409 1563 
L 2978 1563 
z
M 1894 1563 
L 1894 3666 
L 406 1563 
L 1894 1563 
z
" transform="scale(0.015625)"/>
       </defs>
       <use xlink:href="#TimesNewRomanPSMT-31" transform="translate(0 0.582813)"/>
       <use xlink:href="#TimesNewRomanPSMT-30" transform="translate(50 0.582813)"/>
       <use xlink:href="#TimesNewRomanPSMT-34" transform="translate(101.502813 60.695312) scale(0.7)"/>
      </g>
     </g>
    </g>
    <g id="xtick_5">
     <g id="line2d_5">
      <path d="M 198.757673 238.089592 
L 198.757673 19.821875 
" clip-path="url(#pc8a3734b6c)" style="fill: none; stroke: #ffffff; stroke-width: 0.8; stroke-linecap: round"/>
     </g>
     <g id="text_5">
      <!-- $\mathdefault{10^{5}}$ -->
      <g style="fill: #262626" transform="translate(193.117673 253.398342) scale(0.08 -0.08)">
       <defs>
        <path id="TimesNewRomanPSMT-35" d="M 2778 4238 
L 2534 3706 
L 1259 3706 
L 981 3138 
Q 1809 3016 2294 2522 
Q 2709 2097 2709 1522 
Q 2709 1188 2573 903 
Q 2438 619 2231 419 
Q 2025 219 1772 97 
Q 1413 -75 1034 -75 
Q 653 -75 479 54 
Q 306 184 306 341 
Q 306 428 378 495 
Q 450 563 559 563 
Q 641 563 702 538 
Q 763 513 909 409 
Q 1144 247 1384 247 
Q 1750 247 2026 523 
Q 2303 800 2303 1197 
Q 2303 1581 2056 1914 
Q 1809 2247 1375 2428 
Q 1034 2569 447 2591 
L 1259 4238 
L 2778 4238 
z
" transform="scale(0.015625)"/>
       </defs>
       <use xlink:href="#TimesNewRomanPSMT-31" transform="translate(0 0.534375)"/>
       <use xlink:href="#TimesNewRomanPSMT-30" transform="translate(50 0.534375)"/>
       <use xlink:href="#TimesNewRomanPSMT-35" transform="translate(101.502813 60.646875) scale(0.7)"/>
      </g>
     </g>
    </g>
    <g id="xtick_6"/>
    <g id="xtick_7"/>
    <g id="xtick_8"/>
    <g id="xtick_9"/>
    <g id="xtick_10"/>
    <g id="xtick_11"/>
    <g id="xtick_12"/>
    <g id="xtick_13"/>
    <g id="xtick_14"/>
    <g id="xtick_15"/>
    <g id="xtick_16"/>
    <g id="xtick_17"/>
    <g id="xtick_18"/>
    <g id="xtick_19"/>
    <g id="xtick_20"/>
    <g id="xtick_21"/>
    <g id="xtick_22"/>
    <g id="xtick_23"/>
    <g id="xtick_24"/>
    <g id="xtick_25"/>
    <g id="xtick_26"/>
    <g id="xtick_27"/>
    <g id="xtick_28"/>
    <g id="xtick_29"/>
    <g id="xtick_30"/>
    <g id="xtick_31"/>
    <g id="xtick_32"/>
    <g id="xtick_33"/>
    <g id="xtick_34"/>
    <g id="xtick_35"/>
    <g id="xtick_36"/>
    <g id="xtick_37"/>
    <g id="text_6">
     <!-- Minerals Economic Importance [kgSb-eq] -->
     <g style="fill: #262626" transform="translate(43.52539 265.855592) scale(0.096 -0.096)">
      <defs>
       <path id="TimesNewRomanPSMT-4d" d="M 2619 0 
L 981 3566 
L 981 734 
Q 981 344 1066 247 
Q 1181 116 1431 116 
L 1581 116 
L 1581 0 
L 106 0 
L 106 116 
L 256 116 
Q 525 116 638 278 
Q 706 378 706 734 
L 706 3503 
Q 706 3784 644 3909 
Q 600 4000 483 4061 
Q 366 4122 106 4122 
L 106 4238 
L 1306 4238 
L 2844 922 
L 4356 4238 
L 5556 4238 
L 5556 4122 
L 5409 4122 
Q 5138 4122 5025 3959 
Q 4956 3859 4956 3503 
L 4956 734 
Q 4956 344 5044 247 
Q 5159 116 5409 116 
L 5556 116 
L 5556 0 
L 3756 0 
L 3756 116 
L 3906 116 
Q 4178 116 4288 278 
Q 4356 378 4356 734 
L 4356 3566 
L 2722 0 
L 2619 0 
z
" transform="scale(0.015625)"/>
       <path id="TimesNewRomanPSMT-69" d="M 928 4444 
Q 1059 4444 1151 4351 
Q 1244 4259 1244 4128 
Q 1244 3997 1151 3903 
Q 1059 3809 928 3809 
Q 797 3809 703 3903 
Q 609 3997 609 4128 
Q 609 4259 701 4351 
Q 794 4444 928 4444 
z
M 1188 2947 
L 1188 647 
Q 1188 378 1227 289 
Q 1266 200 1342 156 
Q 1419 113 1622 113 
L 1622 0 
L 231 0 
L 231 113 
Q 441 113 512 153 
Q 584 194 626 287 
Q 669 381 669 647 
L 669 1750 
Q 669 2216 641 2353 
Q 619 2453 572 2492 
Q 525 2531 444 2531 
Q 356 2531 231 2484 
L 188 2597 
L 1050 2947 
L 1188 2947 
z
" transform="scale(0.015625)"/>
       <path id="TimesNewRomanPSMT-6e" d="M 1034 2341 
Q 1538 2947 1994 2947 
Q 2228 2947 2397 2830 
Q 2566 2713 2666 2444 
Q 2734 2256 2734 1869 
L 2734 647 
Q 2734 375 2778 278 
Q 2813 200 2889 156 
Q 2966 113 3172 113 
L 3172 0 
L 1756 0 
L 1756 113 
L 1816 113 
Q 2016 113 2095 173 
Q 2175 234 2206 353 
Q 2219 400 2219 647 
L 2219 1819 
Q 2219 2209 2117 2386 
Q 2016 2563 1775 2563 
Q 1403 2563 1034 2156 
L 1034 647 
Q 1034 356 1069 288 
Q 1113 197 1189 155 
Q 1266 113 1500 113 
L 1500 0 
L 84 0 
L 84 113 
L 147 113 
Q 366 113 442 223 
Q 519 334 519 647 
L 519 1709 
Q 519 2225 495 2337 
Q 472 2450 423 2490 
Q 375 2531 294 2531 
Q 206 2531 84 2484 
L 38 2597 
L 900 2947 
L 1034 2947 
L 1034 2341 
z
" transform="scale(0.015625)"/>
       <path id="TimesNewRomanPSMT-65" d="M 681 1784 
Q 678 1147 991 784 
Q 1303 422 1725 422 
Q 2006 422 2214 576 
Q 2422 731 2563 1106 
L 2659 1044 
Q 2594 616 2278 264 
Q 1963 -88 1488 -88 
Q 972 -88 605 314 
Q 238 716 238 1394 
Q 238 2128 614 2539 
Q 991 2950 1559 2950 
Q 2041 2950 2350 2633 
Q 2659 2316 2659 1784 
L 681 1784 
z
M 681 1966 
L 2006 1966 
Q 1991 2241 1941 2353 
Q 1863 2528 1708 2628 
Q 1553 2728 1384 2728 
Q 1125 2728 920 2526 
Q 716 2325 681 1966 
z
" transform="scale(0.015625)"/>
       <path id="TimesNewRomanPSMT-72" d="M 1038 2947 
L 1038 2303 
Q 1397 2947 1775 2947 
Q 1947 2947 2059 2842 
Q 2172 2738 2172 2600 
Q 2172 2478 2090 2393 
Q 2009 2309 1897 2309 
Q 1788 2309 1652 2417 
Q 1516 2525 1450 2525 
Q 1394 2525 1328 2463 
Q 1188 2334 1038 2041 
L 1038 669 
Q 1038 431 1097 309 
Q 1138 225 1241 169 
Q 1344 113 1538 113 
L 1538 0 
L 72 0 
L 72 113 
Q 291 113 397 181 
Q 475 231 506 341 
Q 522 394 522 644 
L 522 1753 
Q 522 2253 501 2348 
Q 481 2444 426 2487 
Q 372 2531 291 2531 
Q 194 2531 72 2484 
L 41 2597 
L 906 2947 
L 1038 2947 
z
" transform="scale(0.015625)"/>
       <path id="TimesNewRomanPSMT-61" d="M 1822 413 
Q 1381 72 1269 19 
Q 1100 -59 909 -59 
Q 613 -59 420 144 
Q 228 347 228 678 
Q 228 888 322 1041 
Q 450 1253 767 1440 
Q 1084 1628 1822 1897 
L 1822 2009 
Q 1822 2438 1686 2597 
Q 1550 2756 1291 2756 
Q 1094 2756 978 2650 
Q 859 2544 859 2406 
L 866 2225 
Q 866 2081 792 2003 
Q 719 1925 600 1925 
Q 484 1925 411 2006 
Q 338 2088 338 2228 
Q 338 2497 613 2722 
Q 888 2947 1384 2947 
Q 1766 2947 2009 2819 
Q 2194 2722 2281 2516 
Q 2338 2381 2338 1966 
L 2338 994 
Q 2338 584 2353 492 
Q 2369 400 2405 369 
Q 2441 338 2488 338 
Q 2538 338 2575 359 
Q 2641 400 2828 588 
L 2828 413 
Q 2478 -56 2159 -56 
Q 2006 -56 1915 50 
Q 1825 156 1822 413 
z
M 1822 616 
L 1822 1706 
Q 1350 1519 1213 1441 
Q 966 1303 859 1153 
Q 753 1003 753 825 
Q 753 600 887 451 
Q 1022 303 1197 303 
Q 1434 303 1822 616 
z
" transform="scale(0.015625)"/>
       <path id="TimesNewRomanPSMT-6c" d="M 1184 4444 
L 1184 647 
Q 1184 378 1223 290 
Q 1263 203 1344 158 
Q 1425 113 1647 113 
L 1647 0 
L 244 0 
L 244 113 
Q 441 113 512 153 
Q 584 194 625 287 
Q 666 381 666 647 
L 666 3247 
Q 666 3731 644 3842 
Q 622 3953 573 3993 
Q 525 4034 450 4034 
Q 369 4034 244 3984 
L 191 4094 
L 1044 4444 
L 1184 4444 
z
" transform="scale(0.015625)"/>
       <path id="TimesNewRomanPSMT-73" d="M 2050 2947 
L 2050 1972 
L 1947 1972 
Q 1828 2431 1642 2597 
Q 1456 2763 1169 2763 
Q 950 2763 815 2647 
Q 681 2531 681 2391 
Q 681 2216 781 2091 
Q 878 1963 1175 1819 
L 1631 1597 
Q 2266 1288 2266 781 
Q 2266 391 1970 151 
Q 1675 -88 1309 -88 
Q 1047 -88 709 6 
Q 606 38 541 38 
Q 469 38 428 -44 
L 325 -44 
L 325 978 
L 428 978 
Q 516 541 762 319 
Q 1009 97 1316 97 
Q 1531 97 1667 223 
Q 1803 350 1803 528 
Q 1803 744 1651 891 
Q 1500 1038 1047 1263 
Q 594 1488 453 1669 
Q 313 1847 313 2119 
Q 313 2472 555 2709 
Q 797 2947 1181 2947 
Q 1350 2947 1591 2875 
Q 1750 2828 1803 2828 
Q 1853 2828 1881 2850 
Q 1909 2872 1947 2947 
L 2050 2947 
z
" transform="scale(0.015625)"/>
       <path id="TimesNewRomanPSMT-20" transform="scale(0.015625)"/>
       <path id="TimesNewRomanPSMT-45" d="M 1338 4006 
L 1338 2331 
L 2269 2331 
Q 2631 2331 2753 2441 
Q 2916 2584 2934 2947 
L 3050 2947 
L 3050 1472 
L 2934 1472 
Q 2891 1781 2847 1869 
Q 2791 1978 2662 2040 
Q 2534 2103 2269 2103 
L 1338 2103 
L 1338 706 
Q 1338 425 1363 364 
Q 1388 303 1450 267 
Q 1513 231 1688 231 
L 2406 231 
Q 2766 231 2928 281 
Q 3091 331 3241 478 
Q 3434 672 3638 1063 
L 3763 1063 
L 3397 0 
L 131 0 
L 131 116 
L 281 116 
Q 431 116 566 188 
Q 666 238 702 338 
Q 738 438 738 747 
L 738 3500 
Q 738 3903 656 3997 
Q 544 4122 281 4122 
L 131 4122 
L 131 4238 
L 3397 4238 
L 3444 3309 
L 3322 3309 
Q 3256 3644 3176 3769 
Q 3097 3894 2941 3959 
Q 2816 4006 2500 4006 
L 1338 4006 
z
" transform="scale(0.015625)"/>
       <path id="TimesNewRomanPSMT-63" d="M 2631 1088 
Q 2516 522 2178 217 
Q 1841 -88 1431 -88 
Q 944 -88 581 321 
Q 219 731 219 1428 
Q 219 2103 620 2525 
Q 1022 2947 1584 2947 
Q 2006 2947 2278 2723 
Q 2550 2500 2550 2259 
Q 2550 2141 2473 2067 
Q 2397 1994 2259 1994 
Q 2075 1994 1981 2113 
Q 1928 2178 1911 2362 
Q 1894 2547 1784 2644 
Q 1675 2738 1481 2738 
Q 1169 2738 978 2506 
Q 725 2200 725 1697 
Q 725 1184 976 792 
Q 1228 400 1656 400 
Q 1963 400 2206 609 
Q 2378 753 2541 1131 
L 2631 1088 
z
" transform="scale(0.015625)"/>
       <path id="TimesNewRomanPSMT-6f" d="M 1600 2947 
Q 2250 2947 2644 2453 
Q 2978 2031 2978 1484 
Q 2978 1100 2793 706 
Q 2609 313 2286 112 
Q 1963 -88 1566 -88 
Q 919 -88 538 428 
Q 216 863 216 1403 
Q 216 1797 411 2186 
Q 606 2575 925 2761 
Q 1244 2947 1600 2947 
z
M 1503 2744 
Q 1338 2744 1170 2645 
Q 1003 2547 900 2300 
Q 797 2053 797 1666 
Q 797 1041 1045 587 
Q 1294 134 1700 134 
Q 2003 134 2200 384 
Q 2397 634 2397 1244 
Q 2397 2006 2069 2444 
Q 1847 2744 1503 2744 
z
" transform="scale(0.015625)"/>
       <path id="TimesNewRomanPSMT-6d" d="M 1050 2338 
Q 1363 2650 1419 2697 
Q 1559 2816 1721 2881 
Q 1884 2947 2044 2947 
Q 2313 2947 2506 2790 
Q 2700 2634 2766 2338 
Q 3088 2713 3309 2830 
Q 3531 2947 3766 2947 
Q 3994 2947 4170 2830 
Q 4347 2713 4450 2447 
Q 4519 2266 4519 1878 
L 4519 647 
Q 4519 378 4559 278 
Q 4591 209 4675 161 
Q 4759 113 4950 113 
L 4950 0 
L 3538 0 
L 3538 113 
L 3597 113 
Q 3781 113 3884 184 
Q 3956 234 3988 344 
Q 4000 397 4000 647 
L 4000 1878 
Q 4000 2228 3916 2372 
Q 3794 2572 3525 2572 
Q 3359 2572 3192 2489 
Q 3025 2406 2788 2181 
L 2781 2147 
L 2788 2013 
L 2788 647 
Q 2788 353 2820 281 
Q 2853 209 2943 161 
Q 3034 113 3253 113 
L 3253 0 
L 1806 0 
L 1806 113 
Q 2044 113 2133 169 
Q 2222 225 2256 338 
Q 2272 391 2272 647 
L 2272 1878 
Q 2272 2228 2169 2381 
Q 2031 2581 1784 2581 
Q 1616 2581 1450 2491 
Q 1191 2353 1050 2181 
L 1050 647 
Q 1050 366 1089 281 
Q 1128 197 1204 155 
Q 1281 113 1516 113 
L 1516 0 
L 100 0 
L 100 113 
Q 297 113 375 155 
Q 453 197 493 289 
Q 534 381 534 647 
L 534 1741 
Q 534 2213 506 2350 
Q 484 2453 437 2492 
Q 391 2531 309 2531 
Q 222 2531 100 2484 
L 53 2597 
L 916 2947 
L 1050 2947 
L 1050 2338 
z
" transform="scale(0.015625)"/>
       <path id="TimesNewRomanPSMT-49" d="M 1975 116 
L 1975 0 
L 159 0 
L 159 116 
L 309 116 
Q 572 116 691 269 
Q 766 369 766 750 
L 766 3488 
Q 766 3809 725 3913 
Q 694 3991 597 4047 
Q 459 4122 309 4122 
L 159 4122 
L 159 4238 
L 1975 4238 
L 1975 4122 
L 1822 4122 
Q 1563 4122 1444 3969 
Q 1366 3869 1366 3488 
L 1366 750 
Q 1366 428 1406 325 
Q 1438 247 1538 191 
Q 1672 116 1822 116 
L 1975 116 
z
" transform="scale(0.015625)"/>
       <path id="TimesNewRomanPSMT-70" d="M -6 2578 
L 875 2934 
L 994 2934 
L 994 2266 
Q 1216 2644 1439 2795 
Q 1663 2947 1909 2947 
Q 2341 2947 2628 2609 
Q 2981 2197 2981 1534 
Q 2981 794 2556 309 
Q 2206 -88 1675 -88 
Q 1444 -88 1275 -22 
Q 1150 25 994 166 
L 994 -706 
Q 994 -1000 1030 -1079 
Q 1066 -1159 1155 -1206 
Q 1244 -1253 1478 -1253 
L 1478 -1369 
L -22 -1369 
L -22 -1253 
L 56 -1253 
Q 228 -1256 350 -1188 
Q 409 -1153 442 -1076 
Q 475 -1000 475 -688 
L 475 2019 
Q 475 2297 450 2372 
Q 425 2447 370 2484 
Q 316 2522 222 2522 
Q 147 2522 31 2478 
L -6 2578 
z
M 994 2081 
L 994 1013 
Q 994 666 1022 556 
Q 1066 375 1236 237 
Q 1406 100 1666 100 
Q 1978 100 2172 344 
Q 2425 663 2425 1241 
Q 2425 1897 2138 2250 
Q 1938 2494 1663 2494 
Q 1513 2494 1366 2419 
Q 1253 2363 994 2081 
z
" transform="scale(0.015625)"/>
       <path id="TimesNewRomanPSMT-74" d="M 1031 3803 
L 1031 2863 
L 1700 2863 
L 1700 2644 
L 1031 2644 
L 1031 788 
Q 1031 509 1111 412 
Q 1191 316 1316 316 
Q 1419 316 1516 380 
Q 1613 444 1666 569 
L 1788 569 
Q 1678 263 1478 108 
Q 1278 -47 1066 -47 
Q 922 -47 784 33 
Q 647 113 581 261 
Q 516 409 516 719 
L 516 2644 
L 63 2644 
L 63 2747 
Q 234 2816 414 2980 
Q 594 3144 734 3369 
Q 806 3488 934 3803 
L 1031 3803 
z
" transform="scale(0.015625)"/>
       <path id="TimesNewRomanPSMT-5b" d="M 1900 -1269 
L 525 -1269 
L 525 4334 
L 1900 4334 
L 1900 4088 
L 994 4088 
L 994 -1025 
L 1900 -1025 
L 1900 -1269 
z
" transform="scale(0.015625)"/>
       <path id="TimesNewRomanPSMT-6b" d="M 1047 4444 
L 1047 1597 
L 1775 2259 
Q 2006 2472 2044 2528 
Q 2069 2566 2069 2603 
Q 2069 2666 2017 2711 
Q 1966 2756 1847 2763 
L 1847 2863 
L 3091 2863 
L 3091 2763 
Q 2834 2756 2664 2684 
Q 2494 2613 2291 2428 
L 1556 1750 
L 2291 822 
Q 2597 438 2703 334 
Q 2853 188 2966 144 
Q 3044 113 3238 113 
L 3238 0 
L 1847 0 
L 1847 113 
Q 1966 116 2008 148 
Q 2050 181 2050 241 
Q 2050 313 1925 472 
L 1047 1594 
L 1047 644 
Q 1047 366 1086 278 
Q 1125 191 1197 153 
Q 1269 116 1509 113 
L 1509 0 
L 53 0 
L 53 113 
Q 272 113 381 166 
Q 447 200 481 272 
Q 528 375 528 628 
L 528 3234 
Q 528 3731 506 3842 
Q 484 3953 434 3995 
Q 384 4038 303 4038 
Q 238 4038 106 3984 
L 53 4094 
L 903 4444 
L 1047 4444 
z
" transform="scale(0.015625)"/>
       <path id="TimesNewRomanPSMT-67" d="M 966 1044 
Q 703 1172 562 1401 
Q 422 1631 422 1909 
Q 422 2334 742 2640 
Q 1063 2947 1563 2947 
Q 1972 2947 2272 2747 
L 2878 2747 
Q 3013 2747 3034 2739 
Q 3056 2731 3066 2713 
Q 3084 2684 3084 2613 
Q 3084 2531 3069 2500 
Q 3059 2484 3036 2475 
Q 3013 2466 2878 2466 
L 2506 2466 
Q 2681 2241 2681 1891 
Q 2681 1491 2375 1206 
Q 2069 922 1553 922 
Q 1341 922 1119 984 
Q 981 866 932 777 
Q 884 688 884 625 
Q 884 572 936 522 
Q 988 472 1138 450 
Q 1225 438 1575 428 
Q 2219 413 2409 384 
Q 2700 344 2873 169 
Q 3047 -6 3047 -263 
Q 3047 -616 2716 -925 
Q 2228 -1381 1444 -1381 
Q 841 -1381 425 -1109 
Q 191 -953 191 -784 
Q 191 -709 225 -634 
Q 278 -519 444 -313 
Q 466 -284 763 25 
Q 600 122 533 198 
Q 466 275 466 372 
Q 466 481 555 628 
Q 644 775 966 1044 
z
M 1509 2797 
Q 1278 2797 1122 2612 
Q 966 2428 966 2047 
Q 966 1553 1178 1281 
Q 1341 1075 1591 1075 
Q 1828 1075 1981 1253 
Q 2134 1431 2134 1813 
Q 2134 2309 1919 2591 
Q 1759 2797 1509 2797 
z
M 934 0 
Q 788 -159 713 -296 
Q 638 -434 638 -550 
Q 638 -700 819 -813 
Q 1131 -1006 1722 -1006 
Q 2284 -1006 2551 -807 
Q 2819 -609 2819 -384 
Q 2819 -222 2659 -153 
Q 2497 -84 2016 -72 
Q 1313 -53 934 0 
z
" transform="scale(0.015625)"/>
       <path id="TimesNewRomanPSMT-53" d="M 2934 4334 
L 2934 2869 
L 2819 2869 
Q 2763 3291 2617 3541 
Q 2472 3791 2203 3937 
Q 1934 4084 1647 4084 
Q 1322 4084 1109 3886 
Q 897 3688 897 3434 
Q 897 3241 1031 3081 
Q 1225 2847 1953 2456 
Q 2547 2138 2764 1967 
Q 2981 1797 3098 1565 
Q 3216 1334 3216 1081 
Q 3216 600 2842 251 
Q 2469 -97 1881 -97 
Q 1697 -97 1534 -69 
Q 1438 -53 1133 45 
Q 828 144 747 144 
Q 669 144 623 97 
Q 578 50 556 -97 
L 441 -97 
L 441 1356 
L 556 1356 
Q 638 900 775 673 
Q 913 447 1195 297 
Q 1478 147 1816 147 
Q 2206 147 2432 353 
Q 2659 559 2659 841 
Q 2659 997 2573 1156 
Q 2488 1316 2306 1453 
Q 2184 1547 1640 1851 
Q 1097 2156 867 2337 
Q 638 2519 519 2737 
Q 400 2956 400 3219 
Q 400 3675 750 4004 
Q 1100 4334 1641 4334 
Q 1978 4334 2356 4169 
Q 2531 4091 2603 4091 
Q 2684 4091 2736 4139 
Q 2788 4188 2819 4334 
L 2934 4334 
z
" transform="scale(0.015625)"/>
       <path id="TimesNewRomanPSMT-62" d="M 984 2369 
Q 1400 2947 1881 2947 
Q 2322 2947 2650 2570 
Q 2978 2194 2978 1541 
Q 2978 778 2472 313 
Q 2038 -88 1503 -88 
Q 1253 -88 995 3 
Q 738 94 469 275 
L 469 3241 
Q 469 3728 445 3840 
Q 422 3953 372 3993 
Q 322 4034 247 4034 
Q 159 4034 28 3984 
L -16 4094 
L 844 4444 
L 984 4444 
L 984 2369 
z
M 984 2169 
L 984 456 
Q 1144 300 1314 220 
Q 1484 141 1663 141 
Q 1947 141 2192 453 
Q 2438 766 2438 1363 
Q 2438 1913 2192 2208 
Q 1947 2503 1634 2503 
Q 1469 2503 1303 2419 
Q 1178 2356 984 2169 
z
" transform="scale(0.015625)"/>
       <path id="TimesNewRomanPSMT-2d" d="M 259 1672 
L 1875 1672 
L 1875 1200 
L 259 1200 
L 259 1672 
z
" transform="scale(0.015625)"/>
       <path id="TimesNewRomanPSMT-71" d="M 2734 2947 
L 2734 -734 
Q 2734 -1009 2771 -1087 
Q 2809 -1166 2889 -1209 
Q 2969 -1253 3200 -1253 
L 3200 -1369 
L 1756 -1369 
L 1756 -1253 
L 1816 -1253 
Q 1991 -1253 2081 -1203 
Q 2144 -1169 2181 -1080 
Q 2219 -991 2219 -734 
L 2219 497 
Q 1934 159 1721 35 
Q 1509 -88 1281 -88 
Q 866 -88 539 290 
Q 213 669 213 1303 
Q 213 2031 644 2489 
Q 1075 2947 1684 2947 
Q 1863 2947 2013 2897 
Q 2163 2847 2281 2747 
Q 2463 2834 2628 2947 
L 2734 2947 
z
M 2219 694 
L 2219 2038 
Q 2219 2272 2158 2406 
Q 2097 2541 1940 2634 
Q 1784 2728 1588 2728 
Q 1238 2728 988 2431 
Q 738 2134 738 1531 
Q 738 953 992 653 
Q 1247 353 1606 353 
Q 1791 353 1934 433 
Q 2078 513 2219 694 
z
" transform="scale(0.015625)"/>
       <path id="TimesNewRomanPSMT-5d" d="M 234 4334 
L 1609 4334 
L 1609 -1272 
L 234 -1272 
L 234 -1025 
L 1141 -1025 
L 1141 4088 
L 234 4088 
L 234 4334 
z
" transform="scale(0.015625)"/>
      </defs>
      <use xlink:href="#TimesNewRomanPSMT-4d"/>
      <use xlink:href="#TimesNewRomanPSMT-69" x="88.916016"/>
      <use xlink:href="#TimesNewRomanPSMT-6e" x="116.699219"/>
      <use xlink:href="#TimesNewRomanPSMT-65" x="166.699219"/>
      <use xlink:href="#TimesNewRomanPSMT-72" x="211.083984"/>
      <use xlink:href="#TimesNewRomanPSMT-61" x="244.384766"/>
      <use xlink:href="#TimesNewRomanPSMT-6c" x="288.769531"/>
      <use xlink:href="#TimesNewRomanPSMT-73" x="316.552734"/>
      <use xlink:href="#TimesNewRomanPSMT-20" x="355.46875"/>
      <use xlink:href="#TimesNewRomanPSMT-45" x="380.46875"/>
      <use xlink:href="#TimesNewRomanPSMT-63" x="441.552734"/>
      <use xlink:href="#TimesNewRomanPSMT-6f" x="485.9375"/>
      <use xlink:href="#TimesNewRomanPSMT-6e" x="535.9375"/>
      <use xlink:href="#TimesNewRomanPSMT-6f" x="585.9375"/>
      <use xlink:href="#TimesNewRomanPSMT-6d" x="635.9375"/>
      <use xlink:href="#TimesNewRomanPSMT-69" x="713.720703"/>
      <use xlink:href="#TimesNewRomanPSMT-63" x="741.503906"/>
      <use xlink:href="#TimesNewRomanPSMT-20" x="785.888672"/>
      <use xlink:href="#TimesNewRomanPSMT-49" x="810.888672"/>
      <use xlink:href="#TimesNewRomanPSMT-6d" x="844.189453"/>
      <use xlink:href="#TimesNewRomanPSMT-70" x="921.972656"/>
      <use xlink:href="#TimesNewRomanPSMT-6f" x="971.972656"/>
      <use xlink:href="#TimesNewRomanPSMT-72" x="1021.972656"/>
      <use xlink:href="#TimesNewRomanPSMT-74" x="1055.273438"/>
      <use xlink:href="#TimesNewRomanPSMT-61" x="1083.056641"/>
      <use xlink:href="#TimesNewRomanPSMT-6e" x="1127.441406"/>
      <use xlink:href="#TimesNewRomanPSMT-63" x="1177.441406"/>
      <use xlink:href="#TimesNewRomanPSMT-65" x="1221.826172"/>
      <use xlink:href="#TimesNewRomanPSMT-20" x="1266.210938"/>
      <use xlink:href="#TimesNewRomanPSMT-5b" x="1291.210938"/>
      <use xlink:href="#TimesNewRomanPSMT-6b" x="1324.511719"/>
      <use xlink:href="#TimesNewRomanPSMT-67" x="1374.511719"/>
      <use xlink:href="#TimesNewRomanPSMT-53" x="1424.511719"/>
      <use xlink:href="#TimesNewRomanPSMT-62" x="1480.126953"/>
      <use xlink:href="#TimesNewRomanPSMT-2d" x="1530.126953"/>
      <use xlink:href="#TimesNewRomanPSMT-65" x="1563.427734"/>
      <use xlink:href="#TimesNewRomanPSMT-71" x="1607.8125"/>
      <use xlink:href="#TimesNewRomanPSMT-5d" x="1657.8125"/>
     </g>
    </g>
   </g>
   <g id="matplotlib.axis_2">
    <g id="ytick_1">
     <g id="line2d_6">
      <path d="M 42.3175 212.225172 
L 207.08128 212.225172 
" clip-path="url(#pc8a3734b6c)" style="fill: none; stroke: #ffffff; stroke-width: 0.8; stroke-linecap: round"/>
     </g>
     <g id="text_7">
      <!-- $\mathdefault{10^{9}}$ -->
      <g style="fill: #262626" transform="translate(22.7375 215.769547) scale(0.08 -0.08)">
       <defs>
        <path id="TimesNewRomanPSMT-39" d="M 338 -88 
L 338 28 
Q 744 34 1094 217 
Q 1444 400 1770 856 
Q 2097 1313 2225 1859 
Q 1734 1544 1338 1544 
Q 891 1544 572 1889 
Q 253 2234 253 2806 
Q 253 3363 572 3797 
Q 956 4325 1575 4325 
Q 2097 4325 2469 3894 
Q 2925 3359 2925 2575 
Q 2925 1869 2578 1258 
Q 2231 647 1613 244 
Q 1109 -88 516 -88 
L 338 -88 
z
M 2275 2091 
Q 2331 2497 2331 2741 
Q 2331 3044 2228 3395 
Q 2125 3747 1936 3934 
Q 1747 4122 1506 4122 
Q 1228 4122 1018 3872 
Q 809 3622 809 3128 
Q 809 2469 1088 2097 
Q 1291 1828 1588 1828 
Q 1731 1828 1928 1897 
Q 2125 1966 2275 2091 
z
" transform="scale(0.015625)"/>
       </defs>
       <use xlink:href="#TimesNewRomanPSMT-31" transform="translate(0 0.582813)"/>
       <use xlink:href="#TimesNewRomanPSMT-30" transform="translate(50 0.582813)"/>
       <use xlink:href="#TimesNewRomanPSMT-39" transform="translate(101.502813 60.695312) scale(0.7)"/>
      </g>
     </g>
    </g>
    <g id="ytick_2">
     <g id="line2d_7">
      <path d="M 42.3175 163.12592 
L 207.08128 163.12592 
" clip-path="url(#pc8a3734b6c)" style="fill: none; stroke: #ffffff; stroke-width: 0.8; stroke-linecap: round"/>
     </g>
     <g id="text_8">
      <!-- $\mathdefault{10^{10}}$ -->
      <g style="fill: #262626" transform="translate(19.9375 166.670295) scale(0.08 -0.08)">
       <use xlink:href="#TimesNewRomanPSMT-31" transform="translate(0 0.582813)"/>
       <use xlink:href="#TimesNewRomanPSMT-30" transform="translate(50 0.582813)"/>
       <use xlink:href="#TimesNewRomanPSMT-31" transform="translate(101.502813 60.695312) scale(0.7)"/>
       <use xlink:href="#TimesNewRomanPSMT-30" transform="translate(136.502813 60.695312) scale(0.7)"/>
      </g>
     </g>
    </g>
    <g id="ytick_3">
     <g id="line2d_8">
      <path d="M 42.3175 114.026669 
L 207.08128 114.026669 
" clip-path="url(#pc8a3734b6c)" style="fill: none; stroke: #ffffff; stroke-width: 0.8; stroke-linecap: round"/>
     </g>
     <g id="text_9">
      <!-- $\mathdefault{10^{11}}$ -->
      <g style="fill: #262626" transform="translate(19.9375 117.571044) scale(0.08 -0.08)">
       <use xlink:href="#TimesNewRomanPSMT-31" transform="translate(0 0.582813)"/>
       <use xlink:href="#TimesNewRomanPSMT-30" transform="translate(50 0.582813)"/>
       <use xlink:href="#TimesNewRomanPSMT-31" transform="translate(101.502813 60.695312) scale(0.7)"/>
       <use xlink:href="#TimesNewRomanPSMT-31" transform="translate(136.502813 60.695312) scale(0.7)"/>
      </g>
     </g>
    </g>
    <g id="ytick_4">
     <g id="line2d_9">
      <path d="M 42.3175 64.927418 
L 207.08128 64.927418 
" clip-path="url(#pc8a3734b6c)" style="fill: none; stroke: #ffffff; stroke-width: 0.8; stroke-linecap: round"/>
     </g>
     <g id="text_10">
      <!-- $\mathdefault{10^{12}}$ -->
      <g style="fill: #262626" transform="translate(19.9375 68.471793) scale(0.08 -0.08)">
       <use xlink:href="#TimesNewRomanPSMT-31" transform="translate(0 0.582813)"/>
       <use xlink:href="#TimesNewRomanPSMT-30" transform="translate(50 0.582813)"/>
       <use xlink:href="#TimesNewRomanPSMT-31" transform="translate(101.502813 60.695312) scale(0.7)"/>
       <use xlink:href="#TimesNewRomanPSMT-32" transform="translate(136.502813 60.695312) scale(0.7)"/>
      </g>
     </g>
    </g>
    <g id="ytick_5"/>
    <g id="ytick_6"/>
    <g id="ytick_7"/>
    <g id="ytick_8"/>
    <g id="ytick_9"/>
    <g id="ytick_10"/>
    <g id="ytick_11"/>
    <g id="ytick_12"/>
    <g id="ytick_13"/>
    <g id="ytick_14"/>
    <g id="ytick_15"/>
    <g id="ytick_16"/>
    <g id="ytick_17"/>
    <g id="ytick_18"/>
    <g id="ytick_19"/>
    <g id="ytick_20"/>
    <g id="ytick_21"/>
    <g id="ytick_22"/>
    <g id="ytick_23"/>
    <g id="ytick_24"/>
    <g id="ytick_25"/>
    <g id="ytick_26"/>
    <g id="ytick_27"/>
    <g id="ytick_28"/>
    <g id="ytick_29"/>
    <g id="ytick_30"/>
    <g id="ytick_31"/>
    <g id="ytick_32"/>
    <g id="ytick_33"/>
    <g id="ytick_34"/>
    <g id="ytick_35"/>
    <g id="ytick_36"/>
    <g id="ytick_37"/>
    <g id="ytick_38"/>
    <g id="ytick_39"/>
    <g id="ytick_40"/>
    <g id="ytick_41"/>
    <g id="ytick_42"/>
    <g id="text_11">
     <!-- Geo-Political Supply Risk [1] -->
     <g style="fill: #262626" transform="translate(13.866 186.152233) rotate(-90) scale(0.096 -0.096)">
      <defs>
       <path id="TimesNewRomanPSMT-47" d="M 3928 4334 
L 4038 2997 
L 3928 2997 
Q 3763 3497 3500 3750 
Q 3122 4116 2528 4116 
Q 1719 4116 1297 3475 
Q 944 2934 944 2188 
Q 944 1581 1178 1081 
Q 1413 581 1792 348 
Q 2172 116 2572 116 
Q 2806 116 3025 175 
Q 3244 234 3447 350 
L 3447 1575 
Q 3447 1894 3398 1992 
Q 3350 2091 3248 2142 
Q 3147 2194 2891 2194 
L 2891 2313 
L 4531 2313 
L 4531 2194 
L 4453 2194 
Q 4209 2194 4119 2031 
Q 4056 1916 4056 1575 
L 4056 278 
Q 3697 84 3347 -6 
Q 2997 -97 2569 -97 
Q 1341 -97 703 691 
Q 225 1281 225 2053 
Q 225 2613 494 3125 
Q 813 3734 1369 4063 
Q 1834 4334 2469 4334 
Q 2700 4334 2889 4296 
Q 3078 4259 3425 4131 
Q 3600 4066 3659 4066 
Q 3719 4066 3761 4120 
Q 3803 4175 3813 4334 
L 3928 4334 
z
" transform="scale(0.015625)"/>
       <path id="TimesNewRomanPSMT-50" d="M 1313 1984 
L 1313 750 
Q 1313 350 1400 253 
Q 1519 116 1759 116 
L 1922 116 
L 1922 0 
L 106 0 
L 106 116 
L 266 116 
Q 534 116 650 291 
Q 713 388 713 750 
L 713 3488 
Q 713 3888 628 3984 
Q 506 4122 266 4122 
L 106 4122 
L 106 4238 
L 1659 4238 
Q 2228 4238 2556 4120 
Q 2884 4003 3109 3725 
Q 3334 3447 3334 3066 
Q 3334 2547 2992 2222 
Q 2650 1897 2025 1897 
Q 1872 1897 1694 1919 
Q 1516 1941 1313 1984 
z
M 1313 2163 
Q 1478 2131 1606 2115 
Q 1734 2100 1825 2100 
Q 2150 2100 2386 2351 
Q 2622 2603 2622 3003 
Q 2622 3278 2509 3514 
Q 2397 3750 2190 3867 
Q 1984 3984 1722 3984 
Q 1563 3984 1313 3925 
L 1313 2163 
z
" transform="scale(0.015625)"/>
       <path id="TimesNewRomanPSMT-75" d="M 2709 2863 
L 2709 1128 
Q 2709 631 2732 520 
Q 2756 409 2807 365 
Q 2859 322 2928 322 
Q 3025 322 3147 375 
L 3191 266 
L 2334 -88 
L 2194 -88 
L 2194 519 
Q 1825 119 1631 15 
Q 1438 -88 1222 -88 
Q 981 -88 804 51 
Q 628 191 559 409 
Q 491 628 491 1028 
L 491 2306 
Q 491 2509 447 2587 
Q 403 2666 317 2708 
Q 231 2750 6 2747 
L 6 2863 
L 1009 2863 
L 1009 947 
Q 1009 547 1148 422 
Q 1288 297 1484 297 
Q 1619 297 1789 381 
Q 1959 466 2194 703 
L 2194 2325 
Q 2194 2569 2105 2655 
Q 2016 2741 1734 2747 
L 1734 2863 
L 2709 2863 
z
" transform="scale(0.015625)"/>
       <path id="TimesNewRomanPSMT-79" d="M 38 2863 
L 1372 2863 
L 1372 2747 
L 1306 2747 
Q 1166 2747 1095 2686 
Q 1025 2625 1025 2534 
Q 1025 2413 1128 2197 
L 1825 753 
L 2466 2334 
Q 2519 2463 2519 2588 
Q 2519 2644 2497 2672 
Q 2472 2706 2419 2726 
Q 2366 2747 2231 2747 
L 2231 2863 
L 3163 2863 
L 3163 2747 
Q 3047 2734 2984 2696 
Q 2922 2659 2847 2556 
Q 2819 2513 2741 2316 
L 1575 -541 
Q 1406 -956 1132 -1168 
Q 859 -1381 606 -1381 
Q 422 -1381 303 -1275 
Q 184 -1169 184 -1031 
Q 184 -900 270 -820 
Q 356 -741 506 -741 
Q 609 -741 788 -809 
Q 913 -856 944 -856 
Q 1038 -856 1148 -759 
Q 1259 -663 1372 -384 
L 1575 113 
L 547 2272 
Q 500 2369 397 2513 
Q 319 2622 269 2659 
Q 197 2709 38 2747 
L 38 2863 
z
" transform="scale(0.015625)"/>
       <path id="TimesNewRomanPSMT-52" d="M 4325 0 
L 3194 0 
L 1759 1981 
Q 1600 1975 1500 1975 
Q 1459 1975 1412 1976 
Q 1366 1978 1316 1981 
L 1316 750 
Q 1316 350 1403 253 
Q 1522 116 1759 116 
L 1925 116 
L 1925 0 
L 109 0 
L 109 116 
L 269 116 
Q 538 116 653 291 
Q 719 388 719 750 
L 719 3488 
Q 719 3888 631 3984 
Q 509 4122 269 4122 
L 109 4122 
L 109 4238 
L 1653 4238 
Q 2328 4238 2648 4139 
Q 2969 4041 3192 3777 
Q 3416 3513 3416 3147 
Q 3416 2756 3161 2468 
Q 2906 2181 2372 2063 
L 3247 847 
Q 3547 428 3762 290 
Q 3978 153 4325 116 
L 4325 0 
z
M 1316 2178 
Q 1375 2178 1419 2176 
Q 1463 2175 1491 2175 
Q 2097 2175 2405 2437 
Q 2713 2700 2713 3106 
Q 2713 3503 2464 3751 
Q 2216 4000 1806 4000 
Q 1625 4000 1316 3941 
L 1316 2178 
z
" transform="scale(0.015625)"/>
      </defs>
      <use xlink:href="#TimesNewRomanPSMT-47"/>
      <use xlink:href="#TimesNewRomanPSMT-65" x="72.216797"/>
      <use xlink:href="#TimesNewRomanPSMT-6f" x="116.601562"/>
      <use xlink:href="#TimesNewRomanPSMT-2d" x="166.601562"/>
      <use xlink:href="#TimesNewRomanPSMT-50" x="199.902344"/>
      <use xlink:href="#TimesNewRomanPSMT-6f" x="255.517578"/>
      <use xlink:href="#TimesNewRomanPSMT-6c" x="305.517578"/>
      <use xlink:href="#TimesNewRomanPSMT-69" x="333.300781"/>
      <use xlink:href="#TimesNewRomanPSMT-74" x="361.083984"/>
      <use xlink:href="#TimesNewRomanPSMT-69" x="388.867188"/>
      <use xlink:href="#TimesNewRomanPSMT-63" x="416.650391"/>
      <use xlink:href="#TimesNewRomanPSMT-61" x="461.035156"/>
      <use xlink:href="#TimesNewRomanPSMT-6c" x="505.419922"/>
      <use xlink:href="#TimesNewRomanPSMT-20" x="533.203125"/>
      <use xlink:href="#TimesNewRomanPSMT-53" x="558.203125"/>
      <use xlink:href="#TimesNewRomanPSMT-75" x="613.818359"/>
      <use xlink:href="#TimesNewRomanPSMT-70" x="663.818359"/>
      <use xlink:href="#TimesNewRomanPSMT-70" x="713.818359"/>
      <use xlink:href="#TimesNewRomanPSMT-6c" x="763.818359"/>
      <use xlink:href="#TimesNewRomanPSMT-79" x="791.601562"/>
      <use xlink:href="#TimesNewRomanPSMT-20" x="841.601562"/>
      <use xlink:href="#TimesNewRomanPSMT-52" x="866.601562"/>
      <use xlink:href="#TimesNewRomanPSMT-69" x="933.300781"/>
      <use xlink:href="#TimesNewRomanPSMT-73" x="961.083984"/>
      <use xlink:href="#TimesNewRomanPSMT-6b" x="1000"/>
      <use xlink:href="#TimesNewRomanPSMT-20" x="1050"/>
      <use xlink:href="#TimesNewRomanPSMT-5b" x="1075"/>
      <use xlink:href="#TimesNewRomanPSMT-31" x="1108.300781"/>
      <use xlink:href="#TimesNewRomanPSMT-5d" x="1158.300781"/>
     </g>
    </g>
   </g>
   <g id="PathCollection_1">
    <path d="M 49.806763 208.258556 
C 50.226086 208.258556 50.628291 208.091957 50.924797 207.795451 
C 51.221303 207.498945 51.387902 207.09674 51.387902 206.677417 
C 51.387902 206.258094 51.221303 205.855889 50.924797 205.559383 
C 50.628291 205.262877 50.226086 205.096278 49.806763 205.096278 
C 49.38744 205.096278 48.985235 205.262877 48.688729 205.559383 
C 48.392223 205.855889 48.225624 206.258094 48.225624 206.677417 
C 48.225624 207.09674 48.392223 207.498945 48.688729 207.795451 
C 48.985235 208.091957 49.38744 208.258556 49.806763 208.258556 
z
" clip-path="url(#pc8a3734b6c)" style="fill: #1b9e77; stroke: #ffffff; stroke-width: 0.253175"/>
    <path d="M 132.820242 145.545432 
C 133.267145 145.545432 133.695803 145.367876 134.01181 145.051869 
C 134.327818 144.735861 134.505374 144.307203 134.505374 143.860301 
C 134.505374 143.413399 134.327818 142.98474 134.01181 142.668733 
C 133.695803 142.352725 133.267145 142.175169 132.820242 142.175169 
C 132.37334 142.175169 131.944682 142.352725 131.628674 142.668733 
C 131.312667 142.98474 131.135111 143.413399 131.135111 143.860301 
C 131.135111 144.307203 131.312667 144.735861 131.628674 145.051869 
C 131.944682 145.367876 132.37334 145.545432 132.820242 145.545432 
z
" clip-path="url(#pc8a3734b6c)" style="fill: #d95f02; stroke: #ffffff; stroke-width: 0.253175"/>
    <path d="M 118.178495 169.111475 
C 118.608733 169.111475 119.021408 168.94054 119.325632 168.636316 
C 119.629856 168.332092 119.800791 167.919417 119.800791 167.489179 
C 119.800791 167.058942 119.629856 166.646267 119.325632 166.342043 
C 119.021408 166.037819 118.608733 165.866884 118.178495 165.866884 
C 117.748258 165.866884 117.335583 166.037819 117.031359 166.342043 
C 116.727135 166.646267 116.5562 167.058942 116.5562 167.489179 
C 116.5562 167.919417 116.727135 168.332092 117.031359 168.636316 
C 117.335583 168.94054 117.748258 169.111475 118.178495 169.111475 
z
" clip-path="url(#pc8a3734b6c)" style="fill: #d95f02; stroke: #ffffff; stroke-width: 0.253175"/>
    <path d="M 81.466971 201.1092 
C 81.887288 201.1092 82.290447 200.942206 82.587656 200.644997 
C 82.884865 200.347788 83.051859 199.944629 83.051859 199.524312 
C 83.051859 199.103995 82.884865 198.700836 82.587656 198.403627 
C 82.290447 198.106418 81.887288 197.939424 81.466971 197.939424 
C 81.046654 197.939424 80.643495 198.106418 80.346286 198.403627 
C 80.049077 198.700836 79.882083 199.103995 79.882083 199.524312 
C 79.882083 199.944629 80.049077 200.347788 80.346286 200.644997 
C 80.643495 200.942206 81.046654 201.1092 81.466971 201.1092 
z
" clip-path="url(#pc8a3734b6c)" style="fill: #7570b3; stroke: #ffffff; stroke-width: 0.253175"/>
    <path d="M 90.436105 158.843543 
C 90.857236 158.843543 91.261175 158.676225 91.55896 158.378441 
C 91.856745 158.080656 92.024062 157.676717 92.024062 157.255585 
C 92.024062 156.834454 91.856745 156.430515 91.55896 156.13273 
C 91.261175 155.834945 90.857236 155.667628 90.436105 155.667628 
C 90.014973 155.667628 89.611034 155.834945 89.313249 156.13273 
C 89.015464 156.430515 88.848147 156.834454 88.848147 157.255585 
C 88.848147 157.676717 89.015464 158.080656 89.313249 158.378441 
C 89.611034 158.676225 90.014973 158.843543 90.436105 158.843543 
z
" clip-path="url(#pc8a3734b6c)" style="fill: #7570b3; stroke: #ffffff; stroke-width: 0.253175"/>
    <path d="M 68.946643 183.835998 
C 69.366333 183.835998 69.768889 183.669253 70.065654 183.372488 
C 70.36242 183.075723 70.529164 182.673166 70.529164 182.253477 
C 70.529164 181.833788 70.36242 181.431231 70.065654 181.134466 
C 69.768889 180.837701 69.366333 180.670956 68.946643 180.670956 
C 68.526954 180.670956 68.124397 180.837701 67.827632 181.134466 
C 67.530867 181.431231 67.364123 181.833788 67.364123 182.253477 
C 67.364123 182.673166 67.530867 183.075723 67.827632 183.372488 
C 68.124397 183.669253 68.526954 183.835998 68.946643 183.835998 
z
" clip-path="url(#pc8a3734b6c)" style="fill: #e7298a; stroke: #ffffff; stroke-width: 0.253175"/>
    <path d="M 115.01786 126.490305 
C 115.445512 126.490305 115.855707 126.320397 116.158103 126.018001 
C 116.460499 125.715605 116.630407 125.305411 116.630407 124.877758 
C 116.630407 124.450106 116.460499 124.039911 116.158103 123.737515 
C 115.855707 123.435119 115.445512 123.265211 115.01786 123.265211 
C 114.590207 123.265211 114.180013 123.435119 113.877617 123.737515 
C 113.575221 124.039911 113.405313 124.450106 113.405313 124.877758 
C 113.405313 125.305411 113.575221 125.715605 113.877617 126.018001 
C 114.180013 126.320397 114.590207 126.490305 115.01786 126.490305 
z
" clip-path="url(#pc8a3734b6c)" style="fill: #7570b3; stroke: #ffffff; stroke-width: 0.253175"/>
    <path d="M 131.643257 108.684089 
C 132.082913 108.684089 132.504621 108.509412 132.815505 108.198528 
C 133.126388 107.887645 133.301065 107.465937 133.301065 107.026281 
C 133.301065 106.586626 133.126388 106.164918 132.815505 105.854034 
C 132.504621 105.543151 132.082913 105.368474 131.643257 105.368474 
C 131.203602 105.368474 130.781894 105.543151 130.47101 105.854034 
C 130.160127 106.164918 129.98545 106.586626 129.98545 107.026281 
C 129.98545 107.465937 130.160127 107.887645 130.47101 108.198528 
C 130.781894 108.509412 131.203602 108.684089 131.643257 108.684089 
z
" clip-path="url(#pc8a3734b6c)" style="fill: #d95f02; stroke: #ffffff; stroke-width: 0.253175"/>
    <path d="M 143.729269 93.951051 
C 144.189443 93.951051 144.630832 93.768222 144.956225 93.442829 
C 145.281617 93.117437 145.464446 92.676048 145.464446 92.215873 
C 145.464446 91.755699 145.281617 91.31431 144.956225 90.988918 
C 144.630832 90.663525 144.189443 90.480696 143.729269 90.480696 
C 143.269095 90.480696 142.827706 90.663525 142.502313 90.988918 
C 142.176921 91.31431 141.994092 91.755699 141.994092 92.215873 
C 141.994092 92.676048 142.176921 93.117437 142.502313 93.442829 
C 142.827706 93.768222 143.269095 93.951051 143.729269 93.951051 
z
" clip-path="url(#pc8a3734b6c)" style="fill: #d95f02; stroke: #ffffff; stroke-width: 0.253175"/>
    <path d="M 148.176681 96.680142 
C 148.636778 96.680142 149.078093 96.497343 149.403431 96.172006 
C 149.728768 95.846668 149.911567 95.405353 149.911567 94.945256 
C 149.911567 94.485159 149.728768 94.043845 149.403431 93.718507 
C 149.078093 93.393169 148.636778 93.210371 148.176681 93.210371 
C 147.716584 93.210371 147.27527 93.393169 146.949932 93.718507 
C 146.624594 94.043845 146.441796 94.485159 146.441796 94.945256 
C 146.441796 95.405353 146.624594 95.846668 146.949932 96.172006 
C 147.27527 96.497343 147.716584 96.680142 148.176681 96.680142 
z
" clip-path="url(#pc8a3734b6c)" style="fill: #d95f02; stroke: #ffffff; stroke-width: 0.253175"/>
    <path d="M 185.389103 50.764046 
C 186.098572 50.764046 186.779079 50.482171 187.28075 49.9805 
C 187.78242 49.47883 188.064295 48.798323 188.064295 48.088854 
C 188.064295 47.379384 187.78242 46.698877 187.28075 46.197207 
C 186.779079 45.695536 186.098572 45.413661 185.389103 45.413661 
C 184.679633 45.413661 183.999127 45.695536 183.497456 46.197207 
C 182.995785 46.698877 182.71391 47.379384 182.71391 48.088854 
C 182.71391 48.798323 182.995785 49.47883 183.497456 49.9805 
C 183.999127 50.482171 184.679633 50.764046 185.389103 50.764046 
z
" clip-path="url(#pc8a3734b6c)" style="fill: #66a61e; stroke: #ffffff; stroke-width: 0.253175"/>
    <path d="M 189.035414 47.236454 
C 189.790478 47.236454 190.514718 46.936464 191.048629 46.402553 
C 191.58254 45.868642 191.88253 45.144402 191.88253 44.389338 
C 191.88253 43.634273 191.58254 42.910033 191.048629 42.376122 
C 190.514718 41.842211 189.790478 41.542221 189.035414 41.542221 
C 188.280349 41.542221 187.556109 41.842211 187.022198 42.376122 
C 186.488287 42.910033 186.188297 43.634273 186.188297 44.389338 
C 186.188297 45.144402 186.488287 45.868642 187.022198 46.402553 
C 187.556109 46.936464 188.280349 47.236454 189.035414 47.236454 
z
" clip-path="url(#pc8a3734b6c)" style="fill: #66a61e; stroke: #ffffff; stroke-width: 0.253175"/>
    <path d="M 199.592017 33.278669 
C 200.529651 33.278669 201.429009 32.906143 202.092017 32.243135 
C 202.755025 31.580127 203.127551 30.680769 203.127551 29.743135 
C 203.127551 28.8055 202.755025 27.906143 202.092017 27.243135 
C 201.429009 26.580127 200.529651 26.207601 199.592017 26.207601 
C 198.654382 26.207601 197.755025 26.580127 197.092017 27.243135 
C 196.429009 27.906143 196.056483 28.8055 196.056483 29.743135 
C 196.056483 30.680769 196.429009 31.580127 197.092017 32.243135 
C 197.755025 32.906143 198.654382 33.278669 199.592017 33.278669 
z
" clip-path="url(#pc8a3734b6c)" style="fill: #66a61e; stroke: #ffffff; stroke-width: 0.253175"/>
    <path d="M 54.609571 229.750272 
C 55.029106 229.750272 55.431515 229.583589 55.728172 229.286932 
C 56.024828 228.990276 56.191511 228.587867 56.191511 228.168332 
C 56.191511 227.748796 56.024828 227.346387 55.728172 227.049731 
C 55.431515 226.753075 55.029106 226.586391 54.609571 226.586391 
C 54.190035 226.586391 53.787627 226.753075 53.49097 227.049731 
C 53.194314 227.346387 53.027631 227.748796 53.027631 228.168332 
C 53.027631 228.587867 53.194314 228.990276 53.49097 229.286932 
C 53.787627 229.583589 54.190035 229.750272 54.609571 229.750272 
z
" clip-path="url(#pc8a3734b6c)" style="fill: #e7298a; stroke: #ffffff; stroke-width: 0.253175"/>
    <path d="M 117.70236 163.119854 
C 118.137346 163.119854 118.554575 162.947032 118.862157 162.63945 
C 119.169739 162.331868 119.34256 161.91464 119.34256 161.479653 
C 119.34256 161.044667 119.169739 160.627438 118.862157 160.319857 
C 118.554575 160.012275 118.137346 159.839453 117.70236 159.839453 
C 117.267374 159.839453 116.850145 160.012275 116.542564 160.319857 
C 116.234982 160.627438 116.06216 161.044667 116.06216 161.479653 
C 116.06216 161.91464 116.234982 162.331868 116.542564 162.63945 
C 116.850145 162.947032 117.267374 163.119854 117.70236 163.119854 
z
" clip-path="url(#pc8a3734b6c)" style="fill: #d95f02; stroke: #ffffff; stroke-width: 0.253175"/>
    <path d="M 103.454417 179.485651 
C 103.880619 179.485651 104.289423 179.316319 104.590794 179.014949 
C 104.892164 178.713578 105.061496 178.304774 105.061496 177.878572 
C 105.061496 177.452369 104.892164 177.043566 104.590794 176.742195 
C 104.289423 176.440825 103.880619 176.271493 103.454417 176.271493 
C 103.028214 176.271493 102.619411 176.440825 102.31804 176.742195 
C 102.016669 177.043566 101.847337 177.452369 101.847337 177.878572 
C 101.847337 178.304774 102.016669 178.713578 102.31804 179.014949 
C 102.619411 179.316319 103.028214 179.485651 103.454417 179.485651 
z
" clip-path="url(#pc8a3734b6c)" style="fill: #d95f02; stroke: #ffffff; stroke-width: 0.253175"/>
    <path d="M 120.21361 153.192496 
C 120.647779 153.192496 121.064223 153.019999 121.371227 152.712996 
C 121.67823 152.405992 121.850727 151.989548 121.850727 151.555379 
C 121.850727 151.121211 121.67823 150.704766 121.371227 150.397763 
C 121.064223 150.090759 120.647779 149.918262 120.21361 149.918262 
C 119.779442 149.918262 119.362997 150.090759 119.055994 150.397763 
C 118.74899 150.704766 118.576493 151.121211 118.576493 151.555379 
C 118.576493 151.989548 118.74899 152.405992 119.055994 152.712996 
C 119.362997 153.019999 119.779442 153.192496 120.21361 153.192496 
z
" clip-path="url(#pc8a3734b6c)" style="fill: #d95f02; stroke: #ffffff; stroke-width: 0.253175"/>
    <path d="M 93.92679 177.938769 
C 94.349 177.938769 94.753974 177.771023 95.052522 177.472475 
C 95.35107 177.173928 95.518815 176.768954 95.518815 176.346744 
C 95.518815 175.924534 95.35107 175.519559 95.052522 175.221012 
C 94.753974 174.922464 94.349 174.754718 93.92679 174.754718 
C 93.50458 174.754718 93.099606 174.922464 92.801058 175.221012 
C 92.502511 175.519559 92.334765 175.924534 92.334765 176.346744 
C 92.334765 176.768954 92.502511 177.173928 92.801058 177.472475 
C 93.099606 177.771023 93.50458 177.938769 93.92679 177.938769 
z
" clip-path="url(#pc8a3734b6c)" style="fill: #7570b3; stroke: #ffffff; stroke-width: 0.253175"/>
   </g>
   <g id="PathCollection_2"/>
   <g id="PathCollection_3"/>
   <g id="PathCollection_4"/>
   <g id="PathCollection_5"/>
   <g id="PathCollection_6"/>
   <g id="PathCollection_7"/>
   <g id="PathCollection_8"/>
   <g id="PathCollection_9"/>
   <g id="PathCollection_10"/>
   <g id="PathCollection_11"/>
   <g id="patch_3">
    <path d="M 42.3175 238.089592 
L 42.3175 19.821875 
" style="fill: none; stroke: #ffffff; stroke-linejoin: miter; stroke-linecap: square"/>
   </g>
   <g id="patch_4">
    <path d="M 207.08128 238.089592 
L 207.08128 19.821875 
" style="fill: none; stroke: #ffffff; stroke-linejoin: miter; stroke-linecap: square"/>
   </g>
   <g id="patch_5">
    <path d="M 42.3175 238.089592 
L 207.08128 238.089592 
" style="fill: none; stroke: #ffffff; stroke-linejoin: miter; stroke-linecap: square"/>
   </g>
   <g id="patch_6">
    <path d="M 42.3175 19.821875 
L 207.08128 19.821875 
" style="fill: none; stroke: #ffffff; stroke-linejoin: miter; stroke-linecap: square"/>
   </g>
   <g id="text_12">
    <!-- Data Centers -->
    <g style="fill: #262626" transform="translate(96.512671 13.821875) scale(0.1 -0.1)">
     <defs>
      <path id="TimesNewRomanPS-BoldMT-44" d="M 84 0 
L 84 116 
L 225 116 
Q 409 116 507 173 
Q 606 231 653 331 
Q 681 397 681 725 
L 681 3513 
Q 681 3838 647 3919 
Q 613 4000 508 4061 
Q 403 4122 225 4122 
L 84 4122 
L 84 4238 
L 1981 4238 
Q 2741 4238 3203 4031 
Q 3769 3778 4061 3265 
Q 4353 2753 4353 2106 
Q 4353 1659 4209 1282 
Q 4066 906 3837 661 
Q 3609 416 3311 267 
Q 3013 119 2581 38 
Q 2391 0 1981 0 
L 84 0 
z
M 1700 3997 
L 1700 691 
Q 1700 428 1725 368 
Q 1750 309 1809 278 
Q 1894 231 2053 231 
Q 2575 231 2850 588 
Q 3225 1069 3225 2081 
Q 3225 2897 2969 3384 
Q 2766 3766 2447 3903 
Q 2222 4000 1700 3997 
z
" transform="scale(0.015625)"/>
      <path id="TimesNewRomanPS-BoldMT-61" d="M 1828 431 
Q 1294 -41 869 -41 
Q 619 -41 453 123 
Q 288 288 288 534 
Q 288 869 575 1136 
Q 863 1403 1828 1847 
L 1828 2141 
Q 1828 2472 1792 2558 
Q 1756 2644 1656 2708 
Q 1556 2772 1431 2772 
Q 1228 2772 1097 2681 
Q 1016 2625 1016 2550 
Q 1016 2484 1103 2388 
Q 1222 2253 1222 2128 
Q 1222 1975 1108 1867 
Q 994 1759 809 1759 
Q 613 1759 480 1878 
Q 347 1997 347 2156 
Q 347 2381 525 2586 
Q 703 2791 1022 2900 
Q 1341 3009 1684 3009 
Q 2100 3009 2342 2832 
Q 2584 2656 2656 2450 
Q 2700 2319 2700 1847 
L 2700 713 
Q 2700 513 2715 461 
Q 2731 409 2762 384 
Q 2794 359 2834 359 
Q 2916 359 3000 475 
L 3094 400 
Q 2938 169 2770 64 
Q 2603 -41 2391 -41 
Q 2141 -41 2000 76 
Q 1859 194 1828 431 
z
M 1828 659 
L 1828 1638 
Q 1450 1416 1266 1163 
Q 1144 994 1144 822 
Q 1144 678 1247 569 
Q 1325 484 1466 484 
Q 1622 484 1828 659 
z
" transform="scale(0.015625)"/>
      <path id="TimesNewRomanPS-BoldMT-74" d="M 1375 3991 
L 1375 2922 
L 2069 2922 
L 2069 2613 
L 1375 2613 
L 1375 809 
Q 1375 556 1398 482 
Q 1422 409 1481 364 
Q 1541 319 1591 319 
Q 1794 319 1975 628 
L 2069 559 
Q 1816 -41 1247 -41 
Q 969 -41 776 114 
Q 584 269 531 459 
Q 500 566 500 1034 
L 500 2613 
L 119 2613 
L 119 2722 
Q 513 3000 789 3306 
Q 1066 3613 1272 3991 
L 1375 3991 
z
" transform="scale(0.015625)"/>
      <path id="TimesNewRomanPS-BoldMT-20" transform="scale(0.015625)"/>
      <path id="TimesNewRomanPS-BoldMT-43" d="M 4272 4334 
L 4272 2866 
L 4150 2866 
Q 4013 3441 3638 3747 
Q 3263 4053 2788 4053 
Q 2391 4053 2059 3825 
Q 1728 3597 1575 3228 
Q 1378 2756 1378 2178 
Q 1378 1609 1522 1142 
Q 1666 675 1972 436 
Q 2278 197 2766 197 
Q 3166 197 3498 372 
Q 3831 547 4200 975 
L 4200 609 
Q 3844 238 3458 70 
Q 3072 -97 2556 -97 
Q 1878 -97 1351 175 
Q 825 447 539 956 
Q 253 1466 253 2041 
Q 253 2647 570 3190 
Q 888 3734 1427 4034 
Q 1966 4334 2572 4334 
Q 3019 4334 3516 4141 
Q 3803 4028 3881 4028 
Q 3981 4028 4054 4101 
Q 4128 4175 4150 4334 
L 4272 4334 
z
" transform="scale(0.015625)"/>
      <path id="TimesNewRomanPS-BoldMT-65" d="M 2691 1566 
L 1088 1566 
Q 1116 984 1397 647 
Q 1613 388 1916 388 
Q 2103 388 2256 492 
Q 2409 597 2584 869 
L 2691 800 
Q 2453 316 2165 114 
Q 1878 -88 1500 -88 
Q 850 -88 516 413 
Q 247 816 247 1413 
Q 247 2144 642 2576 
Q 1038 3009 1569 3009 
Q 2013 3009 2339 2645 
Q 2666 2281 2691 1566 
z
M 1922 1775 
Q 1922 2278 1867 2465 
Q 1813 2653 1697 2750 
Q 1631 2806 1522 2806 
Q 1359 2806 1256 2647 
Q 1072 2369 1072 1884 
L 1072 1775 
L 1922 1775 
z
" transform="scale(0.015625)"/>
      <path id="TimesNewRomanPS-BoldMT-6e" d="M 1409 2922 
L 1409 2544 
Q 1634 2788 1840 2898 
Q 2047 3009 2284 3009 
Q 2569 3009 2756 2851 
Q 2944 2694 3006 2459 
Q 3056 2281 3056 1775 
L 3056 638 
Q 3056 300 3117 217 
Q 3178 134 3372 113 
L 3372 0 
L 1894 0 
L 1894 113 
Q 2059 134 2131 250 
Q 2181 328 2181 638 
L 2181 1938 
Q 2181 2297 2153 2390 
Q 2125 2484 2058 2536 
Q 1991 2588 1909 2588 
Q 1641 2588 1409 2203 
L 1409 638 
Q 1409 309 1470 221 
Q 1531 134 1697 113 
L 1697 0 
L 219 0 
L 219 113 
Q 403 131 481 231 
Q 534 300 534 638 
L 534 2288 
Q 534 2619 473 2700 
Q 413 2781 219 2806 
L 219 2922 
L 1409 2922 
z
" transform="scale(0.015625)"/>
      <path id="TimesNewRomanPS-BoldMT-72" d="M 1428 2922 
L 1428 2259 
Q 1719 2713 1937 2861 
Q 2156 3009 2359 3009 
Q 2534 3009 2639 2901 
Q 2744 2794 2744 2597 
Q 2744 2388 2642 2272 
Q 2541 2156 2397 2156 
Q 2231 2156 2109 2262 
Q 1988 2369 1966 2381 
Q 1934 2400 1894 2400 
Q 1803 2400 1722 2331 
Q 1594 2225 1528 2028 
Q 1428 1725 1428 1359 
L 1428 688 
L 1431 513 
Q 1431 334 1453 284 
Q 1491 200 1564 161 
Q 1638 122 1813 113 
L 1813 0 
L 234 0 
L 234 113 
Q 425 128 492 217 
Q 559 306 559 688 
L 559 2303 
Q 559 2553 534 2622 
Q 503 2709 443 2750 
Q 384 2791 234 2806 
L 234 2922 
L 1428 2922 
z
" transform="scale(0.015625)"/>
      <path id="TimesNewRomanPS-BoldMT-73" d="M 2063 3003 
L 2109 2006 
L 2003 2006 
Q 1813 2450 1608 2612 
Q 1403 2775 1200 2775 
Q 1072 2775 981 2689 
Q 891 2603 891 2491 
Q 891 2406 953 2328 
Q 1053 2200 1512 1889 
Q 1972 1578 2117 1361 
Q 2263 1144 2263 875 
Q 2263 631 2141 397 
Q 2019 163 1797 37 
Q 1575 -88 1306 -88 
Q 1097 -88 747 44 
Q 653 78 619 78 
Q 516 78 447 -78 
L 344 -78 
L 294 972 
L 400 972 
Q 541 559 786 353 
Q 1031 147 1250 147 
Q 1400 147 1495 239 
Q 1591 331 1591 463 
Q 1591 613 1497 722 
Q 1403 831 1078 1053 
Q 600 1384 459 1559 
Q 253 1816 253 2125 
Q 253 2463 486 2736 
Q 719 3009 1159 3009 
Q 1397 3009 1619 2894 
Q 1703 2847 1756 2847 
Q 1813 2847 1847 2870 
Q 1881 2894 1956 3003 
L 2063 3003 
z
" transform="scale(0.015625)"/>
     </defs>
     <use xlink:href="#TimesNewRomanPS-BoldMT-44"/>
     <use xlink:href="#TimesNewRomanPS-BoldMT-61" x="72.216797"/>
     <use xlink:href="#TimesNewRomanPS-BoldMT-74" x="122.216797"/>
     <use xlink:href="#TimesNewRomanPS-BoldMT-61" x="155.517578"/>
     <use xlink:href="#TimesNewRomanPS-BoldMT-20" x="205.517578"/>
     <use xlink:href="#TimesNewRomanPS-BoldMT-43" x="230.517578"/>
     <use xlink:href="#TimesNewRomanPS-BoldMT-65" x="302.734375"/>
     <use xlink:href="#TimesNewRomanPS-BoldMT-6e" x="347.119141"/>
     <use xlink:href="#TimesNewRomanPS-BoldMT-74" x="402.734375"/>
     <use xlink:href="#TimesNewRomanPS-BoldMT-65" x="436.035156"/>
     <use xlink:href="#TimesNewRomanPS-BoldMT-72" x="480.419922"/>
     <use xlink:href="#TimesNewRomanPS-BoldMT-73" x="524.804688"/>
    </g>
   </g>
   <g id="legend_1">
    <g id="patch_7">
     <path d="M 216.919469 157.986875 
L 284.956969 157.986875 
Q 286.556969 157.986875 286.556969 156.386875 
L 286.556969 21.421875 
Q 286.556969 19.821875 284.956969 19.821875 
L 216.919469 19.821875 
Q 215.319469 19.821875 215.319469 21.421875 
L 215.319469 156.386875 
Q 215.319469 157.986875 216.919469 157.986875 
z
" style="fill: #eaeaf2; opacity: 0.8; stroke: #cccccc; stroke-width: 0.8; stroke-linejoin: miter"/>
    </g>
    <g id="text_13">
     <!-- Subcategory -->
     <g style="fill: #262626" transform="translate(240.919469 28.621875) scale(0.08 -0.08)">
      <use xlink:href="#TimesNewRomanPSMT-53"/>
      <use xlink:href="#TimesNewRomanPSMT-75" x="55.615234"/>
      <use xlink:href="#TimesNewRomanPSMT-62" x="105.615234"/>
      <use xlink:href="#TimesNewRomanPSMT-63" x="155.615234"/>
      <use xlink:href="#TimesNewRomanPSMT-61" x="200"/>
      <use xlink:href="#TimesNewRomanPSMT-74" x="244.384766"/>
      <use xlink:href="#TimesNewRomanPSMT-65" x="272.167969"/>
      <use xlink:href="#TimesNewRomanPSMT-67" x="316.552734"/>
      <use xlink:href="#TimesNewRomanPSMT-6f" x="366.552734"/>
      <use xlink:href="#TimesNewRomanPSMT-72" x="416.552734"/>
      <use xlink:href="#TimesNewRomanPSMT-79" x="449.853516"/>
     </g>
    </g>
    <g id="PathCollection_12">
     <defs>
      <path id="m7c227fc990" d="M 0 2.4 
C 0.636487 2.4 1.246992 2.147121 1.697056 1.697056 
C 2.147121 1.246992 2.4 0.636487 2.4 0 
C 2.4 -0.636487 2.147121 -1.246992 1.697056 -1.697056 
C 1.246992 -2.147121 0.636487 -2.4 0 -2.4 
C -0.636487 -2.4 -1.246992 -2.147121 -1.697056 -1.697056 
C -2.147121 -1.246992 -2.4 -0.636487 -2.4 0 
C -2.4 0.636487 -2.147121 1.246992 -1.697056 1.697056 
C -1.246992 2.147121 -0.636487 2.4 0 2.4 
z
" style="stroke: #1b9e77; stroke-width: 0.8"/>
     </defs>
     <g>
      <use xlink:href="#m7c227fc990" x="226.519469" y="37.848125" style="fill: #1b9e77; stroke: #1b9e77; stroke-width: 0.8"/>
     </g>
    </g>
    <g id="text_14">
     <!-- Cabin -->
     <g style="fill: #262626" transform="translate(240.919469 39.948125) scale(0.08 -0.08)">
      <defs>
       <path id="TimesNewRomanPSMT-43" d="M 3853 4334 
L 3950 2894 
L 3853 2894 
Q 3659 3541 3300 3825 
Q 2941 4109 2438 4109 
Q 2016 4109 1675 3895 
Q 1334 3681 1139 3212 
Q 944 2744 944 2047 
Q 944 1472 1128 1050 
Q 1313 628 1683 403 
Q 2053 178 2528 178 
Q 2941 178 3256 354 
Q 3572 531 3950 1056 
L 4047 994 
Q 3728 428 3303 165 
Q 2878 -97 2294 -97 
Q 1241 -97 663 684 
Q 231 1266 231 2053 
Q 231 2688 515 3219 
Q 800 3750 1298 4042 
Q 1797 4334 2388 4334 
Q 2847 4334 3294 4109 
Q 3425 4041 3481 4041 
Q 3566 4041 3628 4100 
Q 3709 4184 3744 4334 
L 3853 4334 
z
" transform="scale(0.015625)"/>
      </defs>
      <use xlink:href="#TimesNewRomanPSMT-43"/>
      <use xlink:href="#TimesNewRomanPSMT-61" x="66.699219"/>
      <use xlink:href="#TimesNewRomanPSMT-62" x="111.083984"/>
      <use xlink:href="#TimesNewRomanPSMT-69" x="161.083984"/>
      <use xlink:href="#TimesNewRomanPSMT-6e" x="188.867188"/>
     </g>
    </g>
    <g id="PathCollection_13">
     <defs>
      <path id="m5dd9ce314a" d="M 0 2.4 
C 0.636487 2.4 1.246992 2.147121 1.697056 1.697056 
C 2.147121 1.246992 2.4 0.636487 2.4 0 
C 2.4 -0.636487 2.147121 -1.246992 1.697056 -1.697056 
C 1.246992 -2.147121 0.636487 -2.4 0 -2.4 
C -0.636487 -2.4 -1.246992 -2.147121 -1.697056 -1.697056 
C -2.147121 -1.246992 -2.4 -0.636487 -2.4 0 
C -2.4 0.636487 -2.147121 1.246992 -1.697056 1.697056 
C -1.246992 2.147121 -0.636487 2.4 0 2.4 
z
" style="stroke: #d95f02; stroke-width: 0.8"/>
     </defs>
     <g>
      <use xlink:href="#m5dd9ce314a" x="226.519469" y="49.159375" style="fill: #d95f02; stroke: #d95f02; stroke-width: 0.8"/>
     </g>
    </g>
    <g id="text_15">
     <!-- Medium -->
     <g style="fill: #262626" transform="translate(240.919469 51.259375) scale(0.08 -0.08)">
      <defs>
       <path id="TimesNewRomanPSMT-64" d="M 2222 322 
Q 2013 103 1813 7 
Q 1613 -88 1381 -88 
Q 913 -88 563 304 
Q 213 697 213 1313 
Q 213 1928 600 2439 
Q 988 2950 1597 2950 
Q 1975 2950 2222 2709 
L 2222 3238 
Q 2222 3728 2198 3840 
Q 2175 3953 2125 3993 
Q 2075 4034 2000 4034 
Q 1919 4034 1784 3984 
L 1744 4094 
L 2597 4444 
L 2738 4444 
L 2738 1134 
Q 2738 631 2761 520 
Q 2784 409 2836 365 
Q 2888 322 2956 322 
Q 3041 322 3181 375 
L 3216 266 
L 2366 -88 
L 2222 -88 
L 2222 322 
z
M 2222 541 
L 2222 2016 
Q 2203 2228 2109 2403 
Q 2016 2578 1861 2667 
Q 1706 2756 1559 2756 
Q 1284 2756 1069 2509 
Q 784 2184 784 1559 
Q 784 928 1059 592 
Q 1334 256 1672 256 
Q 1956 256 2222 541 
z
" transform="scale(0.015625)"/>
      </defs>
      <use xlink:href="#TimesNewRomanPSMT-4d"/>
      <use xlink:href="#TimesNewRomanPSMT-65" x="88.916016"/>
      <use xlink:href="#TimesNewRomanPSMT-64" x="133.300781"/>
      <use xlink:href="#TimesNewRomanPSMT-69" x="183.300781"/>
      <use xlink:href="#TimesNewRomanPSMT-75" x="211.083984"/>
      <use xlink:href="#TimesNewRomanPSMT-6d" x="261.083984"/>
     </g>
    </g>
    <g id="PathCollection_14">
     <defs>
      <path id="m74192e5e65" d="M 0 2.4 
C 0.636487 2.4 1.246992 2.147121 1.697056 1.697056 
C 2.147121 1.246992 2.4 0.636487 2.4 0 
C 2.4 -0.636487 2.147121 -1.246992 1.697056 -1.697056 
C 1.246992 -2.147121 0.636487 -2.4 0 -2.4 
C -0.636487 -2.4 -1.246992 -2.147121 -1.697056 -1.697056 
C -2.147121 -1.246992 -2.4 -0.636487 -2.4 0 
C -2.4 0.636487 -2.147121 1.246992 -1.697056 1.697056 
C -1.246992 2.147121 -0.636487 2.4 0 2.4 
z
" style="stroke: #7570b3; stroke-width: 0.8"/>
     </defs>
     <g>
      <use xlink:href="#m74192e5e65" x="226.519469" y="60.470625" style="fill: #7570b3; stroke: #7570b3; stroke-width: 0.8"/>
     </g>
    </g>
    <g id="text_16">
     <!-- Small  -->
     <g style="fill: #262626" transform="translate(240.919469 62.570625) scale(0.08 -0.08)">
      <use xlink:href="#TimesNewRomanPSMT-53"/>
      <use xlink:href="#TimesNewRomanPSMT-6d" x="55.615234"/>
      <use xlink:href="#TimesNewRomanPSMT-61" x="133.398438"/>
      <use xlink:href="#TimesNewRomanPSMT-6c" x="177.783203"/>
      <use xlink:href="#TimesNewRomanPSMT-6c" x="205.566406"/>
      <use xlink:href="#TimesNewRomanPSMT-20" x="233.349609"/>
     </g>
    </g>
    <g id="PathCollection_15">
     <defs>
      <path id="m7d632d1afe" d="M 0 2.4 
C 0.636487 2.4 1.246992 2.147121 1.697056 1.697056 
C 2.147121 1.246992 2.4 0.636487 2.4 0 
C 2.4 -0.636487 2.147121 -1.246992 1.697056 -1.697056 
C 1.246992 -2.147121 0.636487 -2.4 0 -2.4 
C -0.636487 -2.4 -1.246992 -2.147121 -1.697056 -1.697056 
C -2.147121 -1.246992 -2.4 -0.636487 -2.4 0 
C -2.4 0.636487 -2.147121 1.246992 -1.697056 1.697056 
C -1.246992 2.147121 -0.636487 2.4 0 2.4 
z
" style="stroke: #e7298a; stroke-width: 0.8"/>
     </defs>
     <g>
      <use xlink:href="#m7d632d1afe" x="226.519469" y="71.781875" style="fill: #e7298a; stroke: #e7298a; stroke-width: 0.8"/>
     </g>
    </g>
    <g id="text_17">
     <!-- Server Room -->
     <g style="fill: #262626" transform="translate(240.919469 73.881875) scale(0.08 -0.08)">
      <defs>
       <path id="TimesNewRomanPSMT-76" d="M 53 2863 
L 1400 2863 
L 1400 2747 
L 1313 2747 
Q 1191 2747 1127 2687 
Q 1063 2628 1063 2528 
Q 1063 2419 1128 2269 
L 1794 688 
L 2463 2328 
Q 2534 2503 2534 2594 
Q 2534 2638 2509 2666 
Q 2475 2713 2422 2730 
Q 2369 2747 2206 2747 
L 2206 2863 
L 3141 2863 
L 3141 2747 
Q 2978 2734 2916 2681 
Q 2806 2588 2719 2369 
L 1703 -88 
L 1575 -88 
L 553 2328 
Q 484 2497 421 2570 
Q 359 2644 263 2694 
Q 209 2722 53 2747 
L 53 2863 
z
" transform="scale(0.015625)"/>
      </defs>
      <use xlink:href="#TimesNewRomanPSMT-53"/>
      <use xlink:href="#TimesNewRomanPSMT-65" x="55.615234"/>
      <use xlink:href="#TimesNewRomanPSMT-72" x="100"/>
      <use xlink:href="#TimesNewRomanPSMT-76" x="133.300781"/>
      <use xlink:href="#TimesNewRomanPSMT-65" x="183.300781"/>
      <use xlink:href="#TimesNewRomanPSMT-72" x="227.685547"/>
      <use xlink:href="#TimesNewRomanPSMT-20" x="260.986328"/>
      <use xlink:href="#TimesNewRomanPSMT-52" x="285.986328"/>
      <use xlink:href="#TimesNewRomanPSMT-6f" x="352.685547"/>
      <use xlink:href="#TimesNewRomanPSMT-6f" x="402.685547"/>
      <use xlink:href="#TimesNewRomanPSMT-6d" x="452.685547"/>
     </g>
    </g>
    <g id="PathCollection_16">
     <defs>
      <path id="m79a458f4ba" d="M 0 2.4 
C 0.636487 2.4 1.246992 2.147121 1.697056 1.697056 
C 2.147121 1.246992 2.4 0.636487 2.4 0 
C 2.4 -0.636487 2.147121 -1.246992 1.697056 -1.697056 
C 1.246992 -2.147121 0.636487 -2.4 0 -2.4 
C -0.636487 -2.4 -1.246992 -2.147121 -1.697056 -1.697056 
C -2.147121 -1.246992 -2.4 -0.636487 -2.4 0 
C -2.4 0.636487 -2.147121 1.246992 -1.697056 1.697056 
C -1.246992 2.147121 -0.636487 2.4 0 2.4 
z
" style="stroke: #66a61e; stroke-width: 0.8"/>
     </defs>
     <g>
      <use xlink:href="#m79a458f4ba" x="226.519469" y="83.093125" style="fill: #66a61e; stroke: #66a61e; stroke-width: 0.8"/>
     </g>
    </g>
    <g id="text_18">
     <!-- Big -->
     <g style="fill: #262626" transform="translate(240.919469 85.193125) scale(0.08 -0.08)">
      <defs>
       <path id="TimesNewRomanPSMT-42" d="M 2956 2163 
Q 3397 2069 3616 1863 
Q 3919 1575 3919 1159 
Q 3919 844 3719 555 
Q 3519 266 3170 133 
Q 2822 0 2106 0 
L 106 0 
L 106 116 
L 266 116 
Q 531 116 647 284 
Q 719 394 719 750 
L 719 3488 
Q 719 3881 628 3984 
Q 506 4122 266 4122 
L 106 4122 
L 106 4238 
L 1938 4238 
Q 2450 4238 2759 4163 
Q 3228 4050 3475 3764 
Q 3722 3478 3722 3106 
Q 3722 2788 3528 2536 
Q 3334 2284 2956 2163 
z
M 1319 2331 
Q 1434 2309 1582 2298 
Q 1731 2288 1909 2288 
Q 2366 2288 2595 2386 
Q 2825 2484 2947 2687 
Q 3069 2891 3069 3131 
Q 3069 3503 2766 3765 
Q 2463 4028 1881 4028 
Q 1569 4028 1319 3959 
L 1319 2331 
z
M 1319 306 
Q 1681 222 2034 222 
Q 2600 222 2897 476 
Q 3194 731 3194 1106 
Q 3194 1353 3059 1581 
Q 2925 1809 2622 1940 
Q 2319 2072 1872 2072 
Q 1678 2072 1540 2065 
Q 1403 2059 1319 2044 
L 1319 306 
z
" transform="scale(0.015625)"/>
      </defs>
      <use xlink:href="#TimesNewRomanPSMT-42"/>
      <use xlink:href="#TimesNewRomanPSMT-69" x="66.699219"/>
      <use xlink:href="#TimesNewRomanPSMT-67" x="94.482422"/>
     </g>
    </g>
    <g id="text_19">
     <!-- CED [MJ] -->
     <g style="fill: #262626" transform="translate(240.919469 96.519375) scale(0.08 -0.08)">
      <defs>
       <path id="TimesNewRomanPSMT-44" d="M 109 0 
L 109 116 
L 269 116 
Q 538 116 650 288 
Q 719 391 719 750 
L 719 3488 
Q 719 3884 631 3984 
Q 509 4122 269 4122 
L 109 4122 
L 109 4238 
L 1834 4238 
Q 2784 4238 3279 4022 
Q 3775 3806 4076 3303 
Q 4378 2800 4378 2141 
Q 4378 1256 3841 663 
Q 3238 0 2003 0 
L 109 0 
z
M 1319 306 
Q 1716 219 1984 219 
Q 2709 219 3187 728 
Q 3666 1238 3666 2109 
Q 3666 2988 3187 3494 
Q 2709 4000 1959 4000 
Q 1678 4000 1319 3909 
L 1319 306 
z
" transform="scale(0.015625)"/>
       <path id="TimesNewRomanPSMT-4a" d="M 638 4122 
L 638 4238 
L 2453 4238 
L 2453 4122 
L 2300 4122 
Q 2041 4122 1922 3969 
Q 1847 3869 1847 3488 
L 1847 1416 
Q 1847 938 1742 641 
Q 1638 344 1381 123 
Q 1125 -97 763 -97 
Q 469 -97 300 48 
Q 131 194 131 381 
Q 131 534 209 613 
Q 313 709 450 709 
Q 550 709 629 643 
Q 709 578 831 294 
Q 903 125 1016 125 
Q 1100 125 1173 228 
Q 1247 331 1247 594 
L 1247 3488 
Q 1247 3809 1206 3913 
Q 1175 3991 1075 4047 
Q 941 4122 791 4122 
L 638 4122 
z
" transform="scale(0.015625)"/>
      </defs>
      <use xlink:href="#TimesNewRomanPSMT-43"/>
      <use xlink:href="#TimesNewRomanPSMT-45" x="66.699219"/>
      <use xlink:href="#TimesNewRomanPSMT-44" x="127.783203"/>
      <use xlink:href="#TimesNewRomanPSMT-20" x="200"/>
      <use xlink:href="#TimesNewRomanPSMT-5b" x="225"/>
      <use xlink:href="#TimesNewRomanPSMT-4d" x="258.300781"/>
      <use xlink:href="#TimesNewRomanPSMT-4a" x="347.216797"/>
      <use xlink:href="#TimesNewRomanPSMT-5d" x="386.132812"/>
     </g>
    </g>
    <g id="PathCollection_17">
     <defs>
      <path id="m3ebd2e08e8" d="M 0 2.1064 
C 0.558624 2.1064 1.094443 1.884456 1.48945 1.48945 
C 1.884456 1.094443 2.1064 0.558624 2.1064 0 
C 2.1064 -0.558624 1.884456 -1.094443 1.48945 -1.48945 
C 1.094443 -1.884456 0.558624 -2.1064 0 -2.1064 
C -0.558624 -2.1064 -1.094443 -1.884456 -1.48945 -1.48945 
C -1.884456 -1.094443 -2.1064 -0.558624 -2.1064 0 
C -2.1064 0.558624 -1.884456 1.094443 -1.48945 1.48945 
C -1.094443 1.884456 -0.558624 2.1064 0 2.1064 
z
" style="stroke: #333333; stroke-width: 0.8"/>
     </defs>
     <g>
      <use xlink:href="#m3ebd2e08e8" x="226.519469" y="105.730625" style="fill: #333333; stroke: #333333; stroke-width: 0.8"/>
     </g>
    </g>
    <g id="text_20">
     <!-- 4.0E+07 -->
     <g style="fill: #262626" transform="translate(240.919469 107.830625) scale(0.08 -0.08)">
      <defs>
       <path id="TimesNewRomanPSMT-2e" d="M 800 606 
Q 947 606 1047 504 
Q 1147 403 1147 259 
Q 1147 116 1045 14 
Q 944 -88 800 -88 
Q 656 -88 554 14 
Q 453 116 453 259 
Q 453 406 554 506 
Q 656 606 800 606 
z
" transform="scale(0.015625)"/>
       <path id="TimesNewRomanPSMT-2b" d="M 1672 441 
L 1672 2000 
L 116 2000 
L 116 2256 
L 1672 2256 
L 1672 3809 
L 1922 3809 
L 1922 2256 
L 3484 2256 
L 3484 2000 
L 1922 2000 
L 1922 441 
L 1672 441 
z
" transform="scale(0.015625)"/>
       <path id="TimesNewRomanPSMT-37" d="M 644 4238 
L 2916 4238 
L 2916 4119 
L 1503 -88 
L 1153 -88 
L 2419 3728 
L 1253 3728 
Q 900 3728 750 3644 
Q 488 3500 328 3200 
L 238 3234 
L 644 4238 
z
" transform="scale(0.015625)"/>
      </defs>
      <use xlink:href="#TimesNewRomanPSMT-34"/>
      <use xlink:href="#TimesNewRomanPSMT-2e" x="50"/>
      <use xlink:href="#TimesNewRomanPSMT-30" x="75"/>
      <use xlink:href="#TimesNewRomanPSMT-45" x="125"/>
      <use xlink:href="#TimesNewRomanPSMT-2b" x="186.083984"/>
      <use xlink:href="#TimesNewRomanPSMT-30" x="242.480469"/>
      <use xlink:href="#TimesNewRomanPSMT-37" x="292.480469"/>
     </g>
    </g>
    <g id="PathCollection_18">
     <defs>
      <path id="mb8056504b0" d="M 0 2.525021 
C 0.669643 2.525021 1.31195 2.258969 1.785459 1.785459 
C 2.258969 1.31195 2.525021 0.669643 2.525021 0 
C 2.525021 -0.669643 2.258969 -1.31195 1.785459 -1.785459 
C 1.31195 -2.258969 0.669643 -2.525021 0 -2.525021 
C -0.669643 -2.525021 -1.31195 -2.258969 -1.785459 -1.785459 
C -2.258969 -1.31195 -2.525021 -0.669643 -2.525021 0 
C -2.525021 0.669643 -2.258969 1.31195 -1.785459 1.785459 
C -1.31195 2.258969 -0.669643 2.525021 0 2.525021 
z
" style="stroke: #333333; stroke-width: 0.8"/>
     </defs>
     <g>
      <use xlink:href="#mb8056504b0" x="226.519469" y="117.041875" style="fill: #333333; stroke: #333333; stroke-width: 0.8"/>
     </g>
    </g>
    <g id="text_21">
     <!-- 8.0E+07 -->
     <g style="fill: #262626" transform="translate(240.919469 119.141875) scale(0.08 -0.08)">
      <defs>
       <path id="TimesNewRomanPSMT-38" d="M 1228 2134 
Q 725 2547 579 2797 
Q 434 3047 434 3316 
Q 434 3728 753 4026 
Q 1072 4325 1600 4325 
Q 2113 4325 2425 4047 
Q 2738 3769 2738 3413 
Q 2738 3175 2569 2928 
Q 2400 2681 1866 2347 
Q 2416 1922 2594 1678 
Q 2831 1359 2831 1006 
Q 2831 559 2490 242 
Q 2150 -75 1597 -75 
Q 994 -75 656 303 
Q 388 606 388 966 
Q 388 1247 577 1523 
Q 766 1800 1228 2134 
z
M 1719 2469 
Q 2094 2806 2194 3001 
Q 2294 3197 2294 3444 
Q 2294 3772 2109 3958 
Q 1925 4144 1606 4144 
Q 1288 4144 1088 3959 
Q 888 3775 888 3528 
Q 888 3366 970 3203 
Q 1053 3041 1206 2894 
L 1719 2469 
z
M 1375 2016 
Q 1116 1797 991 1539 
Q 866 1281 866 981 
Q 866 578 1086 336 
Q 1306 94 1647 94 
Q 1984 94 2187 284 
Q 2391 475 2391 747 
Q 2391 972 2272 1150 
Q 2050 1481 1375 2016 
z
" transform="scale(0.015625)"/>
      </defs>
      <use xlink:href="#TimesNewRomanPSMT-38"/>
      <use xlink:href="#TimesNewRomanPSMT-2e" x="50"/>
      <use xlink:href="#TimesNewRomanPSMT-30" x="75"/>
      <use xlink:href="#TimesNewRomanPSMT-45" x="125"/>
      <use xlink:href="#TimesNewRomanPSMT-2b" x="186.083984"/>
      <use xlink:href="#TimesNewRomanPSMT-30" x="242.480469"/>
      <use xlink:href="#TimesNewRomanPSMT-37" x="292.480469"/>
     </g>
    </g>
    <g id="PathCollection_19">
     <defs>
      <path id="m6ce8d3e728" d="M 0 2.883494 
C 0.764712 2.883494 1.498206 2.579671 2.038938 2.038938 
C 2.579671 1.498206 2.883494 0.764712 2.883494 0 
C 2.883494 -0.764712 2.579671 -1.498206 2.038938 -2.038938 
C 1.498206 -2.579671 0.764712 -2.883494 0 -2.883494 
C -0.764712 -2.883494 -1.498206 -2.579671 -2.038938 -2.038938 
C -2.579671 -1.498206 -2.883494 -0.764712 -2.883494 0 
C -2.883494 0.764712 -2.579671 1.498206 -2.038938 2.038938 
C -1.498206 2.579671 -0.764712 2.883494 0 2.883494 
z
" style="stroke: #333333; stroke-width: 0.8"/>
     </defs>
     <g>
      <use xlink:href="#m6ce8d3e728" x="226.519469" y="128.353125" style="fill: #333333; stroke: #333333; stroke-width: 0.8"/>
     </g>
    </g>
    <g id="text_22">
     <!-- 1.2E+08 -->
     <g style="fill: #262626" transform="translate(240.919469 130.453125) scale(0.08 -0.08)">
      <use xlink:href="#TimesNewRomanPSMT-31"/>
      <use xlink:href="#TimesNewRomanPSMT-2e" x="50"/>
      <use xlink:href="#TimesNewRomanPSMT-32" x="75"/>
      <use xlink:href="#TimesNewRomanPSMT-45" x="125"/>
      <use xlink:href="#TimesNewRomanPSMT-2b" x="186.083984"/>
      <use xlink:href="#TimesNewRomanPSMT-30" x="242.480469"/>
      <use xlink:href="#TimesNewRomanPSMT-38" x="292.480469"/>
     </g>
    </g>
    <g id="PathCollection_20">
     <defs>
      <path id="mb0a6f0a8ff" d="M 0 3.202085 
C 0.849203 3.202085 1.663739 2.864693 2.264216 2.264216 
C 2.864693 1.663739 3.202085 0.849203 3.202085 0 
C 3.202085 -0.849203 2.864693 -1.663739 2.264216 -2.264216 
C 1.663739 -2.864693 0.849203 -3.202085 0 -3.202085 
C -0.849203 -3.202085 -1.663739 -2.864693 -2.264216 -2.264216 
C -2.864693 -1.663739 -3.202085 -0.849203 -3.202085 0 
C -3.202085 0.849203 -2.864693 1.663739 -2.264216 2.264216 
C -1.663739 2.864693 -0.849203 3.202085 0 3.202085 
z
" style="stroke: #333333; stroke-width: 0.8"/>
     </defs>
     <g>
      <use xlink:href="#mb0a6f0a8ff" x="226.519469" y="139.664375" style="fill: #333333; stroke: #333333; stroke-width: 0.8"/>
     </g>
    </g>
    <g id="text_23">
     <!-- 1.6E+08 -->
     <g style="fill: #262626" transform="translate(240.919469 141.764375) scale(0.08 -0.08)">
      <defs>
       <path id="TimesNewRomanPSMT-36" d="M 2869 4325 
L 2869 4209 
Q 2456 4169 2195 4045 
Q 1934 3922 1679 3669 
Q 1425 3416 1258 3105 
Q 1091 2794 978 2366 
Q 1428 2675 1881 2675 
Q 2316 2675 2634 2325 
Q 2953 1975 2953 1425 
Q 2953 894 2631 456 
Q 2244 -75 1606 -75 
Q 1172 -75 869 213 
Q 275 772 275 1663 
Q 275 2231 503 2743 
Q 731 3256 1154 3653 
Q 1578 4050 1965 4187 
Q 2353 4325 2688 4325 
L 2869 4325 
z
M 925 2138 
Q 869 1716 869 1456 
Q 869 1156 980 804 
Q 1091 453 1309 247 
Q 1469 100 1697 100 
Q 1969 100 2183 356 
Q 2397 613 2397 1088 
Q 2397 1622 2184 2012 
Q 1972 2403 1581 2403 
Q 1463 2403 1327 2353 
Q 1191 2303 925 2138 
z
" transform="scale(0.015625)"/>
      </defs>
      <use xlink:href="#TimesNewRomanPSMT-31"/>
      <use xlink:href="#TimesNewRomanPSMT-2e" x="50"/>
      <use xlink:href="#TimesNewRomanPSMT-36" x="75"/>
      <use xlink:href="#TimesNewRomanPSMT-45" x="125"/>
      <use xlink:href="#TimesNewRomanPSMT-2b" x="186.083984"/>
      <use xlink:href="#TimesNewRomanPSMT-30" x="242.480469"/>
      <use xlink:href="#TimesNewRomanPSMT-38" x="292.480469"/>
     </g>
    </g>
    <g id="PathCollection_21">
     <defs>
      <path id="mf96908bb09" d="M 0 3.491727 
C 0.926017 3.491727 1.814231 3.123817 2.469024 2.469024 
C 3.123817 1.814231 3.491727 0.926017 3.491727 0 
C 3.491727 -0.926017 3.123817 -1.814231 2.469024 -2.469024 
C 1.814231 -3.123817 0.926017 -3.491727 0 -3.491727 
C -0.926017 -3.491727 -1.814231 -3.123817 -2.469024 -2.469024 
C -3.123817 -1.814231 -3.491727 -0.926017 -3.491727 0 
C -3.491727 0.926017 -3.123817 1.814231 -2.469024 2.469024 
C -1.814231 3.123817 -0.926017 3.491727 0 3.491727 
z
" style="stroke: #333333; stroke-width: 0.8"/>
     </defs>
     <g>
      <use xlink:href="#mf96908bb09" x="226.519469" y="150.975625" style="fill: #333333; stroke: #333333; stroke-width: 0.8"/>
     </g>
    </g>
    <g id="text_24">
     <!-- 2.0E+08 -->
     <g style="fill: #262626" transform="translate(240.919469 153.075625) scale(0.08 -0.08)">
      <use xlink:href="#TimesNewRomanPSMT-32"/>
      <use xlink:href="#TimesNewRomanPSMT-2e" x="50"/>
      <use xlink:href="#TimesNewRomanPSMT-30" x="75"/>
      <use xlink:href="#TimesNewRomanPSMT-45" x="125"/>
      <use xlink:href="#TimesNewRomanPSMT-2b" x="186.083984"/>
      <use xlink:href="#TimesNewRomanPSMT-30" x="242.480469"/>
      <use xlink:href="#TimesNewRomanPSMT-38" x="292.480469"/>
     </g>
    </g>
   </g>
  </g>
 </g>
 <defs>
  <clipPath id="pc8a3734b6c">
   <rect x="42.3175" y="19.821875" width="164.76378" height="218.267717"/>
  </clipPath>
 </defs>
</svg>
